STARTFONT 2.1
FONT -Monotype-Book Antiqua-Bold-I-Normal--50-360-100-100-P-280-iso8859-9
SIZE 36 100 100
FONTBOUNDINGBOX 65 61 -10 -14

STARTPROPERTIES 24
FOUNDRY "Monotype"
FAMILY_NAME "Book Antiqua"
WEIGHT_NAME "Bold"
SLANT "I"
SETWIDTH_NAME "Normal"
ADD_STYLE_NAME ""
PIXEL_SIZE 50
POINT_SIZE 360
RESOLUTION_X 100
RESOLUTION_Y 100
SPACING "P"
AVERAGE_WIDTH 280
CHARSET_REGISTRY "iso8859"
CHARSET_ENCODING "9"
FACE_NAME "Book Antiqua Bold Italic ISO Latin5"
_DEC_DEVICE_FONTNAMES "PS=bookantiqua-bit-lat5"
COPYRIGHT "Copyright (c) 1993 Monotype Typography Ltd."
CAP_HEIGHT 44
X_HEIGHT 30
WEIGHT 10
QUAD_WIDTH 31
DEFAULT_CHAR 160
FONT_DESCENT 16
FONT_ASCENT 49
ENDPROPERTIES

CHARS 191

STARTCHAR space
ENCODING 32
SWIDTH 250 0
DWIDTH 13 0
BBX 0 0 0 0
BITMAP
ENDCHAR

STARTCHAR exclam
ENCODING 33
SWIDTH 333 0
DWIDTH 17 0
BBX 15 35 1 -1
BITMAP
001C
03F8
03F8
03F8
03F0
03F0
03F0
03F0
03E0
03E0
03E0
07C0
07C0
07C0
0780
0780
0780
0780
0700
0700
0700
0600
0E00
0E00
0C00
0000
0000
0000
1E00
3F00
3F00
7F00
7F00
7E00
3C00
ENDCHAR

STARTCHAR quotedbl
ENCODING 34
SWIDTH 500 0
DWIDTH 25 0
BBX 21 17 4 18
BITMAP
040100
1F07C0
3F8FE0
3F8FE0
3F8FE0
3F8FE0
3F8FE0
3F8FC0
1F07C0
1F07C0
1F07C0
0E0380
0E0380
0E0380
0E0380
040100
040100
ENDCHAR

STARTCHAR numbersign
ENCODING 35
SWIDTH 606 0
DWIDTH 30 0
BBX 30 34 1 0
BITMAP
003C0780
003C0780
003C0700
00380F00
00780F00
00780F00
00780F00
00780F00
00780E00
1FFFFFF8
1FFFFFF8
1FFFFFF8
1FFFFFF8
00F01E00
00F01E00
00F01C00
00E03C00
01E03C00
01E03C00
01E03C00
7FFFFFE0
7FFFFFE0
7FFFFFE0
7FFFFFE0
03C07800
03C07800
03C07800
03C07800
03C07000
03807000
0780F000
0780F000
0780F000
0780F000
ENDCHAR

STARTCHAR dollar
ENCODING 36
SWIDTH 500 0
DWIDTH 25 0
BBX 26 42 -1 -5
BITMAP
0000C000
0000C000
0000C000
0001E000
001FFE00
007FFF80
00F19F00
01C18700
03818300
07830300
07030300
07030200
0F030000
0F030000
0F830000
0FC60000
0FF60000
0FFE0000
07FFE000
07FFF800
03FFFC00
00FFFE00
001FFE00
000DFF00
000C7F00
000C3F00
00181F00
00181F00
18181F00
18181E00
18181E00
10183C00
38303800
3C307000
3FB1E000
1FFFC000
07FF0000
00300000
00600000
00600000
00600000
00600000
ENDCHAR

STARTCHAR percent
ENCODING 37
SWIDTH 889 0
DWIDTH 44 0
BBX 42 36 1 -1
BITMAP
00F000000000
03FC00038000
079E00070000
070E00070000
0F0F000E0000
0F0F001C0000
1E0F001C0000
1E0F00380000
1E0F00300000
3E0F00700000
3E0F00E00000
3C1F00E00000
3C1F01C00000
3C1E01800000
3C1E0380F000
3C1E0701FC00
3C3C07039E00
3C3C0E070E00
1C381C0F0F00
1E701C0F0F00
0FE0381E0F00
03C0301E0F00
0000701E0F00
0000E03E0F00
0000E03E0F00
0001C03C1F00
0001803C1F00
0003803C1E00
0007003C1E00
0007003C1E00
000E003C3C00
000C003C3C00
001C001C3800
0038001C7800
0038000FE000
00000003C000
ENDCHAR

STARTCHAR ampersand
ENCODING 38
SWIDTH 833 0
DWIDTH 42 0
BBX 39 36 3 -1
BITMAP
0000FC0000
0007FF0000
000FFF0000
003C0F0000
0070070000
00F0030000
01E0020000
01E0020000
03E0000000
03E0000038
03E0000018
03F000000C
01F800000C
01FE00000C
00FFC0001C
001F8000F8
007E803FF8
01E007FFF0
07801FFFC0
0F003FFC00
1F003FF800
3E0030FC00
3E00207E00
7E00203E00
7E00603E00
7E00003E00
7E00003E00
7E00003C00
7F00007C00
3F00007800
3F8000F000
1FC001E000
0FF00F8000
07FFFE0000
01FFF80000
003F800000
ENDCHAR

STARTCHAR quoteright
ENCODING 39
SWIDTH 278 0
DWIDTH 14 0
BBX 14 14 2 21
BITMAP
0030
01F0
03F0
07E0
07E0
07C0
0780
0F80
0F00
0E00
1E00
1C00
3800
3000
ENDCHAR

STARTCHAR parenleft
ENCODING 40
SWIDTH 333 0
DWIDTH 17 0
BBX 18 42 2 -6
BITMAP
000300
000700
000E00
001C00
003800
007800
00F000
01E000
03E000
03C000
07C000
0FC000
0F8000
1F8000
1F0000
3F0000
3F0000
3F0000
3F0000
3E0000
7E0000
7E0000
7E0000
7E0000
7E0000
7E0000
3E0000
3E0000
3E0000
3E0000
1E0000
1E0000
1E0000
0F0000
0F0000
070000
038000
038000
018000
00C000
00E000
006000
ENDCHAR

STARTCHAR parenright
ENCODING 41
SWIDTH 333 0
DWIDTH 17 0
BBX 18 42 -3 -6
BITMAP
018000
00C000
00C000
006000
007000
003800
003800
003C00
003C00
001E00
001E00
001F00
001F00
001F00
001F00
001F80
001F80
001F80
001F80
001F80
001F80
001F80
001F80
001F00
003F00
003F00
003F00
003E00
007E00
007C00
00FC00
00F800
00F000
01F000
01E000
03C000
078000
070000
0E0000
1C0000
380000
300000
ENDCHAR

STARTCHAR asterisk
ENCODING 42
SWIDTH 444 0
DWIDTH 22 0
BBX 20 17 3 17
BITMAP
003E00
083E00
183C00
3C3C00
3E3800
1F3800
07B060
01EFE0
00FFE0
03E7E0
1FB060
3F3000
3E3800
1C3800
183C00
003E00
003800
ENDCHAR

STARTCHAR plus
ENCODING 43
SWIDTH 606 0
DWIDTH 30 0
BBX 27 25 2 4
BITMAP
001F0000
001F0000
001F0000
001F0000
001F0000
001F0000
001F0000
001F0000
001F0000
001F0000
7FFFFFC0
7FFFFFC0
7FFFFFC0
7FFFFFC0
7FFFFFC0
001F0000
001F0000
001F0000
001F0000
001F0000
001F0000
001F0000
001F0000
001F0000
001F0000
ENDCHAR

STARTCHAR comma
ENCODING 44
SWIDTH 250 0
DWIDTH 13 0
BBX 15 15 -4 -8
BITMAP
0038
03F8
03F0
03F0
03E0
03E0
07C0
07C0
0780
0F00
0F00
1E00
1C00
3800
3000
ENDCHAR

STARTCHAR minus
ENCODING 45
SWIDTH 606 0
DWIDTH 30 0
BBX 28 5 1 14
BITMAP
3FFFFFE0
3FFFFFE0
3FFFFFE0
3FFFFFE0
3FFFFFE0
ENDCHAR

STARTCHAR period
ENCODING 46
SWIDTH 250 0
DWIDTH 13 0
BBX 9 8 0 -1
BITMAP
1C00
3E00
7F00
7F00
7F00
7F00
3E00
1C00
ENDCHAR

STARTCHAR slash
ENCODING 47
SWIDTH 315 0
DWIDTH 16 0
BBX 34 42 -10 -6
BITMAP
0000001F00
0000003F00
0000003E00
0000007C00
0000007C00
000000F800
000001F800
000001F000
000003E000
000003E000
000007C000
00000F8000
00000F8000
00001F0000
00003F0000
00003E0000
00007C0000
00007C0000
0000F80000
0001F80000
0001F00000
0003E00000
0003E00000
0007C00000
000FC00000
000F800000
001F000000
003F000000
003E000000
007C000000
007C000000
00F8000000
01F8000000
01F0000000
03E0000000
03E0000000
07C0000000
0FC0000000
0F80000000
1F00000000
3F00000000
3E00000000
ENDCHAR

STARTCHAR zero
ENCODING 48
SWIDTH 500 0
DWIDTH 25 0
BBX 24 36 1 -1
BITMAP
001F80
007FE0
00F8F0
01F0F8
03E078
07E07C
07C07C
0FC07C
0FC07E
1F807E
1F807E
1F807E
3F807E
3F807E
3F007E
3F007E
3F00FE
7F00FE
7F00FE
7F00FC
7E00FC
7E00FC
7E01FC
7E01FC
7E01F8
7E01F8
7E01F0
7E03F0
3E03F0
3E03E0
3E07C0
1E07C0
1F0F80
0F1F00
07FE00
01F800
ENDCHAR

STARTCHAR one
ENCODING 49
SWIDTH 500 0
DWIDTH 25 0
BBX 22 35 0 0
BITMAP
000040
0001E0
0007C0
003FC0
00FFC0
0FFFC0
1FCFC0
1E1F80
381F80
201F80
001F80
001F80
001F80
003F00
003F00
003F00
003F00
003F00
003F00
007E00
007E00
007E00
007E00
007E00
007E00
00FC00
00FC00
00FC00
00FC00
00FC00
00FC00
01FC00
01FE00
7FFFF0
7FFFF0
ENDCHAR

STARTCHAR two
ENCODING 50
SWIDTH 500 0
DWIDTH 25 0
BBX 26 35 -2 0
BITMAP
001FC000
007FF800
00FFFC00
01FFFE00
01E1FE00
03807F00
03007F00
03003F00
06003F00
06003F00
00003F00
00003F00
00003F00
00007E00
00007E00
00007C00
0000F800
0000F800
0001F000
0003E000
0003C000
00078000
000F0000
000E0000
001C0000
00380000
00700000
00E00000
01C00000
03800100
07FFFF00
0FFFFF00
1FFFFF00
3FFFFE00
3FFFFE00
ENDCHAR

STARTCHAR three
ENCODING 51
SWIDTH 500 0
DWIDTH 25 0
BBX 25 36 -1 -1
BITMAP
001FC000
00FFF000
01FFF800
01FFFC00
03C1FE00
0300FE00
06007E00
06007E00
04007E00
00007E00
00007C00
00007C00
0000F800
0000F000
0001C000
00078000
00FF0000
01FFE000
0103F800
0001FC00
0000FC00
0000FE00
00007E00
00007E00
00007E00
00007E00
10007E00
30007E00
3000FC00
3000FC00
3801F800
3801F000
3C03E000
7E0FC000
1FFF0000
03F80000
ENDCHAR

STARTCHAR four
ENCODING 52
SWIDTH 500 0
DWIDTH 25 0
BBX 28 35 -2 0
BITMAP
00000300
00001F00
00007F00
0000FF00
0001FE00
0001BE00
00037E00
00077E00
000E7E00
000C7E00
00187C00
00387C00
0030FC00
0060FC00
00E0FC00
01C0FC00
0180F800
0380F800
0301F800
0601F800
0E01F800
0C01F800
1FFFFFC0
3FFFFFC0
3FFFFF80
3FFFFF80
0003F000
0003F000
0003E000
0003E000
0007E000
0007E000
0007E000
01FFFF00
01FFFF00
ENDCHAR

STARTCHAR five
ENCODING 53
SWIDTH 500 0
DWIDTH 25 0
BBX 26 35 -1 -1
BITMAP
01C00300
01FFFF00
01FFFE00
01FFFE00
01FFFC00
01800000
01800000
03000000
03000000
03000000
03000000
03000000
06000000
061F8000
06FFE000
07FFF800
0703FC00
0601FC00
0400FE00
0000FE00
00007E00
00007E00
00007E00
00007E00
00007E00
30007E00
3000FC00
3000FC00
3000F800
3001F800
3803F000
7C07E000
7E0FC000
1FFF0000
03F80000
ENDCHAR

STARTCHAR six
ENCODING 54
SWIDTH 500 0
DWIDTH 25 0
BBX 26 36 -1 -1
BITMAP
00003E00
0001FF00
0007FF00
000F0300
001E0000
003C0000
00780000
00F00000
01F00000
03E00000
03E00000
07C00000
07C00000
0FC00000
0FC7F000
1F8FFC00
1FBFFC00
1FF0FE00
1FE07F00
3FC07F00
3F803F00
3F803F00
3F803F00
3F003F00
3F003F00
3F003F00
3F003E00
3F003E00
3F007E00
1F007C00
1F807800
1F80F000
0F81E000
07E3C000
03FF8000
00FE0000
ENDCHAR

STARTCHAR seven
ENCODING 55
SWIDTH 500 0
DWIDTH 25 0
BBX 27 34 2 0
BITMAP
1FFFFF80
1FFFFF80
3FFFFF80
3FFFFF00
3FFFFF00
3FFFFE00
00000C00
00001C00
00003800
00003800
00007000
0000E000
0000E000
0001C000
0003C000
00038000
00078000
000F0000
000F0000
001E0000
003C0000
003C0000
00780000
00F80000
00F00000
01F00000
03E00000
03E00000
07C00000
0FC00000
0F800000
1F800000
3F000000
3F000000
ENDCHAR

STARTCHAR eight
ENCODING 56
SWIDTH 500 0
DWIDTH 25 0
BBX 26 36 -1 -1
BITMAP
0007F000
001FFC00
00387E00
00F01E00
01E01F00
01C00F00
03C00F00
03C00F00
07C00F00
07C00F00
07C00E00
07E01C00
07F03C00
03F87000
03FEE000
01FFC000
00FFC000
007FF000
003FF800
00EFFC00
01C3FC00
0781FE00
0F00FE00
0E007E00
1E007E00
1C003E00
3C003E00
3C003E00
3C003C00
3C003C00
3E007800
1E007000
1F00E000
0FC3C000
07FF0000
01FC0000
ENDCHAR

STARTCHAR nine
ENCODING 57
SWIDTH 500 0
DWIDTH 25 0
BBX 27 36 0 -1
BITMAP
000FF000
003FF800
0078FC00
01F07E00
03E03F00
07C01F00
07C01F00
0FC01F80
0F801F80
0F801F80
1F801F80
1F801F80
1F801F80
1F801F80
1F803F80
1FC03F80
1FC03F80
0FC07F80
0FE0FF00
0FFFBF00
07FF3F00
03FE3E00
00F87E00
00007E00
00007C00
0000FC00
0000F800
0000F800
0001F000
0001E000
2003C000
30078000
380F0000
1E1E0000
1FF80000
1FE00000
ENDCHAR

STARTCHAR colon
ENCODING 58
SWIDTH 250 0
DWIDTH 13 0
BBX 12 25 0 -1
BITMAP
03C0
07E0
0FE0
0FE0
0FE0
0FC0
07C0
0000
0000
0000
0000
0000
0000
0000
0000
0000
0000
0000
1E00
3F00
7F00
7F00
7F00
7E00
3C00
ENDCHAR

STARTCHAR semicolon
ENCODING 59
SWIDTH 250 0
DWIDTH 13 0
BBX 16 32 -4 -8
BITMAP
003C
007E
00FE
00FE
00FE
00FC
0078
0000
0000
0000
0000
0000
0000
0000
0000
0000
0000
00F8
03F0
03F0
03E0
07E0
07C0
07C0
0F80
0F00
0F00
1E00
1C00
3800
3000
6000
ENDCHAR

STARTCHAR less
ENCODING 60
SWIDTH 606 0
DWIDTH 30 0
BBX 28 26 1 4
BITMAP
00000060
000001E0
00000FE0
00003FE0
0000FFE0
0003FF80
000FFE00
007FF000
01FFC000
07FF0000
1FFC0000
3FE00000
3F800000
3F800000
3FE00000
1FF80000
07FF0000
01FFC000
007FF000
001FFC00
0007FF80
0000FFE0
00003FE0
00000FE0
000003E0
000000E0
ENDCHAR

STARTCHAR equal
ENCODING 61
SWIDTH 606 0
DWIDTH 30 0
BBX 28 14 1 10
BITMAP
3FFFFFE0
3FFFFFE0
3FFFFFE0
3FFFFFE0
3FFFFFE0
00000000
00000000
00000000
00000000
3FFFFFE0
3FFFFFE0
3FFFFFE0
3FFFFFE0
3FFFFFE0
ENDCHAR

STARTCHAR greater
ENCODING 62
SWIDTH 606 0
DWIDTH 30 0
BBX 28 26 1 4
BITMAP
30000000
3C000000
3F000000
3FC00000
3FF00000
0FFE0000
03FF8000
00FFE000
003FF800
000FFF00
0001FFC0
00007FE0
00001FE0
00001FE0
00007FE0
0001FFC0
0007FF00
003FF800
00FFE000
03FF8000
0FFE0000
3FF80000
3FC00000
3F000000
3C000000
30000000
ENDCHAR

STARTCHAR question
ENCODING 63
SWIDTH 444 0
DWIDTH 22 0
BBX 21 36 3 -1
BITMAP
01F800
07FF00
1FFF80
1FFFC0
1C1FC0
180FE0
3007E0
3007E0
2007E0
0007E0
0007E0
000FC0
001FC0
001F80
003F00
007E00
00F800
01F000
03E000
03C000
070000
070000
060000
060000
030000
010000
000000
000000
000000
0F0000
1F0000
3F8000
3F8000
3F0000
3F0000
1E0000
ENDCHAR

STARTCHAR at
ENCODING 64
SWIDTH 833 0
DWIDTH 42 0
BBX 39 37 2 -2
BITMAP
0000FFE000
0007C03800
001E000600
0038000300
00E0000180
01C00000C0
0380000040
0300000020
06001C0020
0E007EF830
0C00F2F810
1C01E1F010
1803C1F010
1807C1F010
380781E010
300F83E010
300F03E010
301F03E030
301F07C020
301F07C020
303E0FC060
303E0F8040
303E1F8080
383E2F8180
183FEF830C
183FCF8608
181F87F808
0C0E01E010
0C00000030
0600000020
0300000040
0180000080
00C0000100
0060000600
0038001C00
000F00F000
0001FF8000
ENDCHAR

STARTCHAR A
ENCODING 65
SWIDTH 722 0
DWIDTH 36 0
BBX 39 35 -4 0
BITMAP
000000F800
000001F800
000001F800
000003F800
000007F800
000007F800
00000FFC00
00000CFC00
00001CFC00
000018FC00
000038FC00
000070FC00
000060FE00
0000E0FE00
0000C07E00
0001C07E00
0001807E00
0003007E00
0007007F00
0007FFFF00
000FFFFF00
000C003F00
001C003F00
0038003F00
0038003F00
0070003F80
0070003F80
00E0003F80
00E0001F80
01C0001F80
03C0001F80
0380001FC0
07C0001FC0
3FFC01FFFC
3FF801FFFC
ENDCHAR

STARTCHAR B
ENCODING 66
SWIDTH 667 0
DWIDTH 33 0
BBX 34 34 -1 0
BITMAP
07FFFFE000
07FFFFFC00
007F01FE00
003F007E00
007F007F00
007F003F00
007F003F00
007E003F00
007E003F00
007E003F00
007E007E00
00FE007E00
00FE00FC00
00FC01F000
00FC07E000
00FFFF0000
00FFFFC000
01F80FF000
01F803F800
01F801FC00
01F800FE00
01F800FE00
01F800FE00
03F000FE00
03F000FE00
03F000FE00
03F000FC00
03F000FC00
03F001F800
07F003F000
07F007E000
07F81FC000
3FFFFF0000
7FFFFC0000
ENDCHAR

STARTCHAR C
ENCODING 67
SWIDTH 685 0
DWIDTH 34 0
BBX 34 36 2 -1
BITMAP
00003FF000
0001FFFE00
0007FFFF00
001F80FF00
003E001F00
00F8000E00
01F0000600
03E0000600
07E0000600
07C0000600
0FC0000400
0FC0000000
1F80000000
1F80000000
3F80000000
3F80000000
3F00000000
3F00000000
7F00000000
7F00000000
7F00000000
7F00000000
7F00000000
7F00000000
7F00000000
7F00000000
7F80000000
3F80000000
3F80000000
3FC0000800
1FE0003800
0FF000F000
07FE07E000
03FFFF8000
01FFFE0000
003FF00000
ENDCHAR

STARTCHAR D
ENCODING 68
SWIDTH 778 0
DWIDTH 39 0
BBX 40 34 -2 0
BITMAP
07FFFFFC00
07FFFFFF80
003F803FC0
003F000FE0
003F0007F0
003F0003F8
003F0001FC
007F0001FC
007F0000FC
007E0000FE
007E0000FE
007E0000FE
007E0000FE
00FE0000FE
00FE0000FE
00FC0000FE
00FC0000FE
00FC0000FE
00FC0000FC
01FC0001FC
01FC0001FC
01F80001F8
01F80001F8
01F80003F0
01F80003F0
03F80007E0
03F80007C0
03F0000FC0
03F0001F80
03F0003F00
07F0007C00
07FE01F800
3FFFFFE000
3FFFFE0000
ENDCHAR

STARTCHAR E
ENCODING 69
SWIDTH 611 0
DWIDTH 31 0
BBX 33 34 -2 0
BITMAP
03FFFFFF00
007FFFFE00
003F801E00
003F800600
003F800600
003F000600
003F000600
003F000600
003F000000
007F000000
007F000000
007E000000
007E000000
007E000000
007E000000
00FFFFC000
00FFFFC000
00FC000000
00FC000000
00FC000000
00FC000000
01FC000000
01FC000000
01F8000000
01F8000000
01F8001800
01F8001800
03F8001800
03F8001800
03F8003800
03F0007000
07FFFFF000
3FFFFFF000
3FFFFFF000
ENDCHAR

STARTCHAR F
ENCODING 70
SWIDTH 556 0
DWIDTH 28 0
BBX 32 34 -2 0
BITMAP
03FFFFFE
007FFFFE
003F807C
003F800C
003F800C
003F000C
003F000C
003F000C
003F0000
007F0000
007F0000
007E0000
007E0000
007E0000
007E0000
00FE0000
00FE0000
00FFFFC0
00FFFFC0
00FC0000
00FC0000
01FC0000
01FC0000
01F80000
01F80000
01F80000
01F80000
01F80000
03F80000
03F00000
03F00000
07F80000
7FFF8000
7FFF8000
ENDCHAR

STARTCHAR G
ENCODING 71
SWIDTH 778 0
DWIDTH 39 0
BBX 37 36 2 -1
BITMAP
00001FF800
0001FFFF80
0007FFFFC0
000FC03FC0
003E000780
007C000380
00F8000380
01F0000380
03E0000300
07E0000300
0FC0000300
0FC0000000
1F80000000
1F80000000
1F80000000
3F80000000
3F00000000
3F00000000
3F00000000
7F00000000
7F00000000
7F000FFFE0
7F000FFFE0
7F00007F00
7F00007F00
7F00007E00
3F00007E00
3F80007E00
3F80007E00
1F8000FE00
1FC000FC00
0FE000FC00
07F000FC00
03FE07F800
00FFFFC000
003FFC0000
ENDCHAR

STARTCHAR H
ENCODING 72
SWIDTH 778 0
DWIDTH 39 0
BBX 44 34 -2 0
BITMAP
03FFFC1FFFC0
03FFF81FFFC0
003F8001FC00
003F8001FC00
003F8001FC00
003F8001F800
003F0001F800
003F0001F800
003F0003F800
007F0003F800
007F0003F000
007E0003F000
007E0003F000
007E0003F000
007E0007F000
00FFFFFFF000
00FFFFFFE000
00FC0007E000
00FC0007E000
00FC0007E000
00FC000FE000
01FC000FE000
01FC000FC000
01F8000FC000
01F8000FC000
01F8000FC000
01F8001FC000
03F8001FC000
03F8001F8000
03F8001F8000
03F0003F8000
07F8003FC000
7FFF83FFFC00
7C1F83FFFC00
ENDCHAR

STARTCHAR I
ENCODING 73
SWIDTH 389 0
DWIDTH 19 0
BBX 24 34 -2 0
BITMAP
03FFFC
03FFFC
001FC0
001FC0
001F80
001F80
001F80
003F80
003F80
003F00
003F00
003F00
003F00
003F00
007F00
007E00
007E00
007E00
007E00
00FE00
00FE00
00FC00
00FC00
00FC00
00FC00
01FC00
01FC00
01FC00
01F800
01F800
01F800
03FC00
3FFFC0
3FFFC0
ENDCHAR

STARTCHAR J
ENCODING 74
SWIDTH 389 0
DWIDTH 19 0
BBX 25 45 -3 -11
BITMAP
01FFFF00
01FFFE00
000FF000
000FE000
000FE000
000FE000
000FC000
000FC000
000FC000
000FC000
001FC000
001FC000
001F8000
001F8000
001F8000
001F8000
003F8000
003F8000
003F0000
003F0000
003F0000
003F0000
007F0000
007F0000
007E0000
007E0000
007E0000
007E0000
00FE0000
00FE0000
00FC0000
00FC0000
00FC0000
00FC0000
01FC0000
01F80000
01F80000
01F80000
01F00000
03E00000
03E00000
03C00000
07800000
7F000000
3C000000
ENDCHAR

STARTCHAR K
ENCODING 75
SWIDTH 722 0
DWIDTH 36 0
BBX 41 34 -2 0
BITMAP
01FFFC01FF00
01FFFC01FE00
001FC001F000
001FC003E000
001F80078000
001F800F0000
001F801E0000
001F803C0000
003F80780000
003F80F00000
003F01E00000
003F03800000
003F07000000
003F0E000000
007F1C000000
007F3C000000
007EFC000000
007FFE000000
007EFF000000
007E7F800000
00FE3F800000
00FE1FC00000
00FC0FE00000
00FC0FF00000
00FC07F00000
00FC03F80000
01FC03FC0000
01FC01FE0000
01F800FE0000
01F800FF0000
01F8007F8000
03FC003FC000
3FFFC03FF800
3FFF801FF000
ENDCHAR

STARTCHAR L
ENCODING 76
SWIDTH 611 0
DWIDTH 31 0
BBX 31 34 -2 0
BITMAP
03FFFC00
03FFFC00
003F8000
003F8000
003F8000
003F0000
003F0000
003F0000
003F0000
007F0000
007F0000
007E0000
007E0000
007E0000
007E0000
00FE0000
00FE0000
00FC0000
00FC0000
00FC0000
00FC0000
01FC0000
01FC0000
01F80000
01F80000
01F8000C
01F80018
03F80018
03F80018
03F00038
03F00078
07FFFFF0
3FFFFFF0
3FFFFFF0
ENDCHAR

STARTCHAR M
ENCODING 77
SWIDTH 944 0
DWIDTH 47 0
BBX 53 34 -3 0
BITMAP
01FFE00000FFF0
01FFE00000FFE0
000FE00001FF00
000FE00003FE00
000FF00003FE00
000FF00007FE00
000FF00007FE00
001FF0000EFC00
001BF8001CFC00
0019F8001CFC00
0019F80038FC00
0039F80031FC00
0031FC0071FC00
0030FC00E1F800
0030FC00C1F800
0070FE01C1F800
0060FE0381F800
00607E0383F800
00E07E0703F800
00E07F0603F000
00C03F0E03F000
00C03F1C03F000
01C03F9803F000
01C03FB807F000
01801FF007F000
01801FF007E000
03801FE007E000
03801FE007E000
03800FC007E000
07000F800FE000
07000F800FE000
07800F000FE000
3FF80700FFFE00
7FF00600FFFE00
ENDCHAR

STARTCHAR N
ENCODING 78
SWIDTH 778 0
DWIDTH 39 0
BBX 44 34 -2 0
BITMAP
0FFF0001FFE0
0FFF0001FFC0
007F80001E00
003F80001C00
003FC0001C00
003FE0001C00
003FE0001C00
003FF0003800
0037F0003800
0033F8003800
0073F8003800
0071FC003800
0071FE003000
0060FE003000
00607F007000
00607F007000
00E03F806000
00E03FC06000
00E01FC06000
00C00FE06000
00C00FF0E000
00C007F0E000
01C007F8C000
01C003F8C000
01C001FCC000
018001FFC000
038000FFC000
038000FFC000
0380007F8000
0380003F8000
0380003F8000
0780001F8000
7FF8001F8000
7FF8000F8000
ENDCHAR

STARTCHAR O
ENCODING 79
SWIDTH 833 0
DWIDTH 42 0
BBX 38 36 2 -1
BITMAP
0000FFE000
0007FFFC00
001FC0FE00
007E003F80
00FC001FC0
01F8000FE0
03F00007E0
07F00007F0
07E00003F0
0FE00003F0
0FC00003F8
1FC00003F8
1F800003F8
3F800003F8
3F800003F8
3F800003F8
3F800003F8
7F000003F8
7F000003F8
7F000007F0
7F000007F0
7F000007F0
7F000007E0
7F00000FE0
7F00000FE0
7F00000FC0
3F00001FC0
3F80001F80
3F80003F00
1F80003E00
0FC0007C00
0FE000F800
07F001F000
01FC0FC000
00FFFF0000
001FF80000
ENDCHAR

STARTCHAR P
ENCODING 80
SWIDTH 667 0
DWIDTH 33 0
BBX 36 34 -2 0
BITMAP
03FFFFF800
03FFFFFF00
001FC07F80
001FC03FC0
001FC01FC0
001F800FE0
001F800FE0
001F800FE0
001F800FE0
003F800FE0
003F800FE0
003F000FC0
003F000FC0
003F001F80
003F001F80
007F003F00
007F007E00
007E40FC00
007E7FF000
007E1FC000
007E000000
00FE000000
00FE000000
00FC000000
00FC000000
00FC000000
00FC000000
01FC000000
01FC000000
01FC000000
01F8000000
03FC000000
3FFFE00000
3FFFC00000
ENDCHAR

STARTCHAR Q
ENCODING 81
SWIDTH 833 0
DWIDTH 42 0
BBX 38 47 2 -12
BITMAP
0000FFE000
0007FFFC00
001FC0FE00
003E003F80
00FC001FC0
01F8000FC0
03F00007E0
07F00007F0
07E00003F0
0FE00003F0
0FC00003F8
1FC00003F8
1FC00003F8
3F800003F8
3F800003F8
3F800003F8
3F800003F8
7F000003F8
7F000003F8
7F000003F0
7F000007F0
7F000007F0
7F000007E0
7F00000FE0
7F00000FE0
7F00000FC0
3F00001F80
3F00001F80
3F80003F00
1F80003E00
1FC0007C00
0FE000F800
07F001F000
01FC0FC000
00FFFF0000
001FF80000
007C000000
01FF800000
03FFE00030
0307FC0030
0601FF0020
06007FC060
06003FF0E0
06000FFFC0
000003FF80
000001FF80
0000003E00
ENDCHAR

STARTCHAR R
ENCODING 82
SWIDTH 722 0
DWIDTH 36 0
BBX 38 34 -2 0
BITMAP
03FFFFF800
03FFFFFE00
003F80FF00
003F803F80
003F801F80
003F801FC0
003F001FC0
003F001FC0
003F001FC0
003F001F80
007F001F80
007F003F00
007E003F00
007E007C00
007E01F800
007E7FC000
00FE7F0000
00FE7F0000
00FC3F8000
00FC1FC000
00FC1FC000
00FC0FE000
01FC07F000
01FC07F000
01F803F800
01F803F800
01F801FC00
01F801FE00
03F800FE00
03F8007F00
03F8007F80
07F8003F80
3FFF803FF0
7FFF801FF0
ENDCHAR

STARTCHAR S
ENCODING 83
SWIDTH 556 0
DWIDTH 28 0
BBX 27 36 0 -1
BITMAP
0001F800
001FFF00
003FFF80
00F01F80
01E00780
03C00300
03800300
07800300
07800300
07800300
0F800000
0F800000
0FC00000
0FE00000
0FF80000
07FF8000
07FFF000
03FFFC00
01FFFE00
00FFFE00
001FFF00
0001FF00
00007F00
00003F00
00001F00
00001F00
30001F00
30001E00
30001E00
30003C00
38003800
3C007000
7F01E000
7FFFC000
1FFF0000
01F80000
ENDCHAR

STARTCHAR T
ENCODING 84
SWIDTH 611 0
DWIDTH 31 0
BBX 33 34 1 0
BITMAP
3FFFFFFF00
3FFFFFFF00
3FFFFFFE00
3807F00E00
3007F00600
3007E00600
2007E00600
6007E00600
6007E00400
000FE00000
000FE00000
000FC00000
000FC00000
000FC00000
000FC00000
001FC00000
001FC00000
001F800000
001F800000
001F800000
001F800000
003F800000
003F800000
003F000000
003F000000
003F000000
003F000000
007F000000
007F000000
007E000000
007E000000
00FF000000
0FFFF00000
0FFFF00000
ENDCHAR

STARTCHAR U
ENCODING 85
SWIDTH 778 0
DWIDTH 39 0
BBX 40 35 1 -1
BITMAP
3FFC01FFFE
3FF801FFFE
03F8001FE0
03F8000FC0
03F8000FC0
03F8001FC0
03F0001FC0
03F0001F80
03F0001F80
07F0001F80
07F0001F80
07E0001F80
07E0003F80
07E0003F00
07E0003F00
07E0003F00
0FE0003F00
0FC0003F00
0FC0007F00
0FC0007E00
0FC0007E00
1FC0007E00
1FC0007E00
1F80007E00
1F8000FE00
1F8000FC00
1F8001FC00
1F8003FC00
1FC006FC00
1FE01CFC00
0FF079FC00
0FFFF1FC00
07FFE1FFC0
03FF81FFC0
00FE000000
ENDCHAR

STARTCHAR V
ENCODING 86
SWIDTH 667 0
DWIDTH 33 0
BBX 37 34 2 0
BITMAP
7FFF00FFE0
7FFF00FFE0
07F0000F00
07F0000F00
07F0000E00
03F0001E00
03F0001C00
03F8003800
03F8003800
03F8007000
01F8007000
01F800E000
01F800E000
01F801C000
01FC01C000
00FC038000
00FC030000
00FC070000
00FC060000
00FC0E0000
00FE0C0000
007E1C0000
007E380000
007E380000
007E700000
007F600000
007FE00000
007FC00000
003FC00000
003F800000
003F800000
003F000000
003F000000
003E000000
ENDCHAR

STARTCHAR W
ENCODING 87
SWIDTH 1000 0
DWIDTH 50 0
BBX 54 34 1 0
BITMAP
3FFF8018007FF0
3FFF003C007FF0
07F8003C000780
03F0007C000780
03F0007C000700
03F0007E000700
03F800FE000E00
03F800FE000E00
03F801FE000E00
03F801FF001C00
01F803BF001C00
01F8033F001800
01F8073F803800
01F8063F803800
01F80E1F807000
01F80C1F807000
01F81C1FC06000
01FC180FC0E000
01FC380FC0E000
00FC300FE0C000
00FC700FE1C000
00FC6007E18000
00FCE007E38000
00FCC007F30000
00FDC003F30000
00FD8003F70000
00FF8003F60000
00FF0003FE0000
00FF0001FC0000
007E0001FC0000
007E0001FC0000
007C0001F80000
007C0000F80000
00780000F80000
ENDCHAR

STARTCHAR X
ENCODING 88
SWIDTH 722 0
DWIDTH 36 0
BBX 42 34 -3 0
BITMAP
03FFFC0FFF80
03FFFC0FFF00
003FC001F800
001FC001F000
000FE001E000
000FE003C000
0007F0078000
0007F00F0000
0003F81E0000
0003F83C0000
0001FC380000
0001FC700000
0000FEE00000
0000FFC00000
00007F800000
00007F800000
00003F800000
00001FC00000
00003FC00000
00007FE00000
0000EFE00000
0001C7F00000
000387F00000
000783F80000
000F03F80000
001E01FC0000
003C01FC0000
003800FE0000
007000FE0000
00E0007F0000
01E0007F8000
07E0007F8000
3FFE07FFF800
3FFE07FFF800
ENDCHAR

STARTCHAR Y
ENCODING 89
SWIDTH 611 0
DWIDTH 31 0
BBX 34 35 0 0
BITMAP
07C0000300
0FE0000700
1FF0000F00
7FF8001F00
47F8003F00
03FC007C00
01FC00F000
00FC00E000
00FE01C000
007E03C000
007E038000
007F070000
003F070000
003F0E0000
003F0C0000
001F9C0000
001F980000
001FB80000
001FB00000
000FF00000
000FE00000
000FE00000
000FE00000
000FE00000
000FC00000
000FC00000
000FC00000
000FC00000
001FC00000
001F800000
001F800000
001F800000
003FC00000
03FFFC0000
03FFFC0000
ENDCHAR

STARTCHAR Z
ENCODING 90
SWIDTH 667 0
DWIDTH 33 0
BBX 36 34 -1 0
BITMAP
01FFFFFFC0
01FFFFFFC0
01FFFFFFC0
0380007F80
038000FF00
030001FE00
030003FC00
030003F800
060007F800
00000FF000
00001FE000
00003FC000
00003F8000
00007F8000
0000FF0000
0001FE0000
0003FC0000
0003F80000
0007F80000
000FF00000
001FE00000
003FC00000
003F800000
007F800000
00FF000000
01FE000180
03FC000300
03F8000300
07F8000300
0FF0000700
1FE0000F00
3FFFFFFE00
7FFFFFFE00
7FFFFFFE00
ENDCHAR

STARTCHAR bracketleft
ENCODING 91
SWIDTH 333 0
DWIDTH 17 0
BBX 20 43 -2 -6
BITMAP
01FFE0
01FFE0
01F800
01F800
01F000
01F000
01F000
01F000
01F000
03F000
03E000
03E000
03E000
03E000
03E000
03E000
07C000
07C000
07C000
07C000
07C000
07C000
07C000
0F8000
0F8000
0F8000
0F8000
0F8000
0F8000
0F8000
1F8000
1F0000
1F0000
1F0000
1F0000
1F0000
3F0000
3F0000
3F0000
3F0000
3F0000
3FF800
7FF800
ENDCHAR

STARTCHAR backslash
ENCODING 92
SWIDTH 606 0
DWIDTH 30 0
BBX 21 42 4 -6
BITMAP
3F0000
3F0000
1F0000
1F0000
1F8000
1F8000
0F8000
0FC000
0FC000
07C000
07C000
07E000
07E000
03E000
03F000
03F000
01F000
01F000
01F800
01F800
00F800
00FC00
00FC00
007C00
007C00
007E00
003E00
003E00
003F00
003F00
001F00
001F00
001F80
000F80
000F80
000FC0
000FC0
0007C0
0007E0
0007E0
0007E0
0003F0
ENDCHAR

STARTCHAR bracketright
ENCODING 93
SWIDTH 333 0
DWIDTH 17 0
BBX 21 43 -2 -7
BITMAP
01FFE0
01FFE0
0007E0
0007E0
0007C0
0007C0
0007C0
0007C0
0007C0
000FC0
000F80
000F80
000F80
000F80
000F80
000F80
001F80
001F00
001F00
001F00
001F00
001F00
001F00
001F00
003E00
003E00
003E00
003E00
003E00
003E00
003E00
007E00
007C00
007C00
007C00
007C00
007C00
00FC00
00FC00
00FC00
01F800
3FF800
301800
ENDCHAR

STARTCHAR asciicircum
ENCODING 94
SWIDTH 606 0
DWIDTH 30 0
BBX 28 20 2 14
BITMAP
001F8000
001F8000
003FC000
003FC000
007FE000
007FE000
00FFF000
00F9F000
01F9F800
01F0F800
03F0FC00
03E07C00
07E07E00
07C03E00
0FC03F00
0F801F00
1F801F80
1F000F80
3F000FC0
3E0007C0
ENDCHAR

STARTCHAR underscore
ENCODING 95
SWIDTH 500 0
DWIDTH 25 0
BBX 29 3 -2 -6
BITMAP
3FFFFFE0
3FFFFFE0
3FFFFFE0
ENDCHAR

STARTCHAR quoteleft
ENCODING 96
SWIDTH 278 0
DWIDTH 14 0
BBX 14 14 2 21
BITMAP
0010
0070
00E0
01E0
01C0
03C0
07C0
0780
0F80
0F80
1F00
1F00
3F00
7C00
ENDCHAR

STARTCHAR a
ENCODING 97
SWIDTH 556 0
DWIDTH 28 0
BBX 27 25 1 -1
BITMAP
0003E100
000FFF00
003FFF00
00707F00
00E03E00
03C03E00
07C03E00
07807E00
0F807C00
0F807C00
1F00FC00
1F00FC00
1F01FC00
3F017800
3E03F800
3E06F800
3E04F800
3E0CF000
7E18F000
7E31F180
7E61F300
7FC1FE00
7F81FC00
3F01F000
3C01E000
ENDCHAR

STARTCHAR b
ENCODING 98
SWIDTH 537 0
DWIDTH 27 0
BBX 25 37 1 -1
BITMAP
00180000
01F00000
3FF00000
3FF00000
03F00000
03E00000
03E00000
07E00000
07E00000
07E00000
07C00000
07C00000
07C01C00
0FC0FE00
0F83FE00
0F87FF00
0F8C7F00
0F903F00
1FA03F00
1F603F00
1FC03F00
1F803F00
1F803F00
3F003E00
3F003E00
3F007E00
3E007C00
3E007C00
3E00F800
7E00F800
7E01F000
7E01E000
7E03C000
3F078000
3F8E0000
1FFC0000
0FE00000
ENDCHAR

STARTCHAR c
ENCODING 99
SWIDTH 444 0
DWIDTH 22 0
BBX 23 25 1 -1
BITMAP
0007F0
001FF8
007FF8
01F0F8
03C030
07C030
0F8030
0F8030
1F0000
1F0000
3F0000
3F0000
3E0000
3E0000
7E0000
7E0000
7E0000
7E0000
7E0000
7E0070
7F01C0
3F8780
3FFE00
1FF800
07E000
ENDCHAR

STARTCHAR d
ENCODING 100
SWIDTH 556 0
DWIDTH 28 0
BBX 29 38 1 -1
BITMAP
00000060
000003E0
0000FFE0
0000FFE0
00000FC0
00000FC0
00000FC0
00000FC0
00000FC0
00000F80
00000F80
00000F80
00001F80
000FFF80
003FFF00
00707F00
01E01F00
03C03F00
07C03E00
07C03E00
0F803E00
0F807E00
1F807E00
1F007C00
1F00FC00
3F00FC00
3F01FC00
3E037C00
3E02F800
7E06F800
7E0CF800
7E18F800
7E30F880
7E61FB80
7FC1FF00
7F81FC00
3F01F800
1C00E000
ENDCHAR

STARTCHAR e
ENCODING 101
SWIDTH 444 0
DWIDTH 22 0
BBX 22 25 1 -1
BITMAP
0007E0
001FF0
0071F8
01E0F8
03C0F8
07C0F8
0780F0
0F81F0
0F81E0
1F03E0
1F0780
3F1F00
3FFC00
3FC000
3E0000
3E0000
7E0000
7E0000
7E0000
7E0060
7F01C0
3F8F80
3FFE00
1FF800
0FE000
ENDCHAR

STARTCHAR f
ENCODING 102
SWIDTH 333 0
DWIDTH 17 0
BBX 33 51 -9 -14
BITMAP
0000001F00
0000007E00
000001FE00
000003FE00
0000071E00
00000E0C00
00001E0400
00003E0000
00007C0000
00007C0000
0000FC0000
0000FC0000
0000F80000
0001F83000
000FFFE000
003FFFE000
0001F80000
0001F00000
0003F00000
0003F00000
0003F00000
0003E00000
0003E00000
0003E00000
0007E00000
0007E00000
0007C00000
0007C00000
0007C00000
000FC00000
000F800000
000F800000
000F800000
000F000000
001F000000
001F000000
001F000000
001E000000
001E000000
003C000000
003C000000
003C000000
0038000000
0078000000
0070000000
1060000000
18C0000000
1F80000000
3F00000000
3E00000000
3800000000
ENDCHAR

STARTCHAR g
ENCODING 103
SWIDTH 500 0
DWIDTH 25 0
BBX 33 38 -5 -14
BITMAP
0001FE0000
0007FFFE00
001F0FFE00
003E07FE00
007C07E000
007803E000
00F803E000
00F803E000
01F003E000
01F003E000
01F007C000
01F007C000
01F00F8000
00F80F0000
00FC1E0000
007FF80000
001FC00000
0003800000
000F000000
001F000000
003F800000
003FC00000
001FF00000
001FF80000
00F7FE0000
03C3FF0000
0700FF0000
0E007F8000
1E001F8000
3C001F8000
3C000F8000
3C000F8000
3C000F0000
3E001F0000
1F003E0000
0FC0F80000
07FFF00000
00FF000000
ENDCHAR

STARTCHAR h
ENCODING 104
SWIDTH 556 0
DWIDTH 28 0
BBX 28 37 1 -1
BITMAP
000C0000
007C0000
0FFC0000
0FFC0000
00F80000
00F80000
00F80000
01F80000
01F00000
01F00000
01F00000
01F00000
03E00300
03E01F80
03E03F80
03E0FF80
03E1FF80
03C31F80
07C61F00
07CC1F00
07D83F00
07903F00
0FA03E00
0FE03E00
0FC07E00
0FC07C00
0F807C00
1F807C00
1F00FC00
1F00F800
1F00F800
1F00F8C0
3E01F980
3E01FF00
3E01FE00
7E01F800
7000E000
ENDCHAR

STARTCHAR i
ENCODING 105
SWIDTH 333 0
DWIDTH 17 0
BBX 18 36 0 -1
BITMAP
000E00
001F00
003F00
003F00
003F00
003E00
000C00
000000
000000
000000
000000
003800
00FC00
03FC00
07F800
1FF800
39F800
61F800
01F800
03F000
03F000
03F000
03E000
07E000
07E000
07C000
0FC000
0FC000
0FC000
0F8000
1F8600
1F9C00
1FF000
1FE000
1F8000
0E0000
ENDCHAR

STARTCHAR j
ENCODING 106
SWIDTH 333 0
DWIDTH 17 0
BBX 24 49 -6 -14
BITMAP
000038
00007C
0000FC
0000FC
0000FC
0000F8
000030
000000
000000
000000
000000
0000E0
0003F0
0007F0
001FE0
003FE0
00E7E0
01C7E0
0007E0
0007C0
0007C0
0007C0
000FC0
000F80
000F80
000F80
001F80
001F00
001F00
001F00
001F00
003E00
003E00
003E00
003E00
003C00
007C00
007C00
007800
007800
007800
00F000
00F000
00E000
01C000
118000
3F0000
3E0000
3C0000
ENDCHAR

STARTCHAR k
ENCODING 107
SWIDTH 556 0
DWIDTH 28 0
BBX 29 37 0 -1
BITMAP
00020000
003E0000
07FE0000
0FFE0000
00FE0000
00FC0000
00FC0000
00FC0000
00FC0000
00F80000
00F80000
01F80000
01F800E0
01F007E0
01F00FE0
01F03FC0
03F07800
03F0E000
03E1C000
03E38000
03E30000
07E78000
07CF8000
07DF8000
07FFC000
07EFC000
0FC7E000
0FC7E000
0F87E000
0F83F000
0F83F000
1F81F800
1F01F8E0
1F01FF80
3F00FF00
3F00FC00
30007000
ENDCHAR

STARTCHAR l
ENCODING 108
SWIDTH 333 0
DWIDTH 17 0
BBX 15 37 3 -1
BITMAP
000C
00FC
0FF8
0FF8
01F8
01F8
01F0
01F0
01F0
01F0
03E0
03E0
03E0
03E0
07E0
07C0
07C0
07C0
0FC0
0F80
0F80
0F80
1F80
1F00
1F00
1F00
3F00
3F00
3E00
3E00
3E00
7E30
7E70
7FC0
7F80
7E00
3800
ENDCHAR

STARTCHAR m
ENCODING 109
SWIDTH 833 0
DWIDTH 42 0
BBX 43 25 -1 -1
BITMAP
003001C00E00
00F807C03F00
03F81FC07F00
07F83FC1FF00
0FF06FC3FF00
19F0C7C63F00
31F1878C3E00
01F307983E00
01F607B07E00
01E40FA07E00
03E80F607C00
03F80FC07C00
03F00F807C00
03F01F80FC00
03E01F00F800
07E01F00F800
07C01F00F800
07C03E01F800
07C03E01F800
0FC03E01F180
0F807E01FB80
0F807C03FE00
1F807C03FC00
1F80FC03F000
1C00F001C000
ENDCHAR

STARTCHAR n
ENCODING 110
SWIDTH 556 0
DWIDTH 28 0
BBX 28 25 0 -1
BITMAP
00700380
01F00FC0
07F03FC0
0FF07FC0
1FF0FFC0
33E18F80
23E30F80
03E60F80
03EC1F80
03C81F00
07D81F00
07F01F00
07E03F00
07E03E00
07C03E00
0FC03E00
0FC07E00
0F807C00
1F807C00
1F807C60
1F00FCC0
1F00FF80
3F00FF00
3F00FC00
38007000
ENDCHAR

STARTCHAR o
ENCODING 111
SWIDTH 556 0
DWIDTH 28 0
BBX 25 25 1 -1
BITMAP
000FF000
003FF800
00F0FC00
01E07E00
03C03F00
07803F00
0F803F00
1F803F00
1F003F00
1F003F00
3F003F00
3F003F00
3E003E00
7E003E00
7E007E00
7E007E00
7E007C00
7E007C00
7E00F800
7E00F000
3F01E000
3F03C000
3FC78000
1FFE0000
07F80000
ENDCHAR

STARTCHAR p
ENCODING 112
SWIDTH 556 0
DWIDTH 28 0
BBX 30 38 -3 -14
BITMAP
000E00E0
003E03F0
00FE0FF8
01FE1FF8
03FE31F8
0E7C61F8
087CC1F8
007D81F8
007D01F8
00FB01F8
00FE01F0
00FC01F0
00FC03F0
00F803E0
00F803E0
01F803E0
01F007C0
01F007C0
01F00780
01F00F00
03E01E00
03F01C00
03FC7800
03FFE000
07FF8000
07C00000
07C00000
07C00000
0FC00000
0F800000
0F800000
0F800000
1F800000
1F800000
1F000000
1F000000
3F000000
38000000
ENDCHAR

STARTCHAR q
ENCODING 113
SWIDTH 537 0
DWIDTH 27 0
BBX 27 38 0 -14
BITMAP
0003E080
000FFF80
003FFF80
00703F00
00E01F00
01E01F00
03C03F00
07C03E00
0F803E00
0F803E00
1F807E00
1F007E00
1F00FC00
1F00FC00
3F01FC00
3E037C00
3E02F800
3E04F800
7E0CF800
7E18F800
7E71F800
7FE1F000
7F81F000
3F01F000
3C03F000
0003F000
0003E000
0003E000
0003E000
0007E000
0007C000
0007C000
0007C000
000FC000
000FC000
000F8000
001F8000
00180000
ENDCHAR

STARTCHAR r
ENCODING 114
SWIDTH 389 0
DWIDTH 19 0
BBX 22 25 0 -1
BITMAP
007078
01F0F8
07F1F0
0FF3F0
1FE3F0
73E7F0
23E730
03EC00
03E800
03D800
03D000
03F000
07E000
07E000
07C000
07C000
07C000
0FC000
0F8000
0F8000
0F8000
1F8000
1F8000
1F0000
380000
ENDCHAR

STARTCHAR s
ENCODING 115
SWIDTH 444 0
DWIDTH 22 0
BBX 22 25 -1 -1
BITMAP
0007C0
003FF8
00FFF8
01C0F0
038070
078030
078030
0F8030
0FC000
0FE000
0FFE00
07FFC0
07FFE0
01FFF0
003FF0
0007F0
0001F0
1001F0
1801E0
1801E0
3C01C0
3F0380
3FFF00
3FFC00
07E000
ENDCHAR

STARTCHAR t
ENCODING 116
SWIDTH 389 0
DWIDTH 19 0
BBX 21 33 1 -1
BITMAP
000600
003E00
00FC00
00FC00
00FC00
00FC00
00F800
00F800
00F800
07FFF0
3FFFE0
7FFFE0
01F000
01F000
03F000
03E000
03E000
03E000
07E000
07C000
07C000
07C000
0FC000
0FC000
0F8000
0F8000
0F8100
1F8700
1F9C00
1FF800
1FF000
1FC000
0F0000
ENDCHAR

STARTCHAR u
ENCODING 117
SWIDTH 556 0
DWIDTH 28 0
BBX 28 25 0 -1
BITMAP
00300020
00F807E0
03F807C0
07F80FC0
1FF80FC0
31F80F80
21F00F80
01F01F80
01F01F00
03E01F00
03E03F00
03E03F00
07E07F00
07C05E00
07C0FE00
07C0BE00
0FC1BE00
0F833C00
0F867C00
0F8C7C60
1F987CC0
1FF07F80
1FE07E00
1FC07C00
0F007000
ENDCHAR

STARTCHAR v
ENCODING 118
SWIDTH 556 0
DWIDTH 28 0
BBX 28 25 -1 -1
BITMAP
0FFF83C0
0FFF07C0
1FFF0FE0
18061FE0
100C01E0
301C01E0
303801E0
007801E0
007801C0
00F001C0
01F001C0
01F00380
03E00380
03E00380
03E00700
07E00600
07E00E00
07E00C00
07E01C00
07E03800
03F07000
03F8E000
03FFC000
01FF0000
007C0000
ENDCHAR

STARTCHAR w
ENCODING 119
SWIDTH 833 0
DWIDTH 42 0
BBX 41 25 0 -1
BITMAP
0FC380301C00
1FFF01F03E00
1FFF03F07E00
3FF603E0FF00
300C03E01F00
201803E00F00
603803E00F00
007007E00F00
00F007C00F00
01E007C00E00
01E007C00E00
03E00FC00E00
03C00FC01C00
07C00F801C00
07C01F801800
07C01F803800
0FC03F803000
0FC02F806000
0FC06F80E000
0FC0CF80C000
07E18FC18000
07E30FC70000
07FE07FE0000
03FC07F80000
01F003E00000
ENDCHAR

STARTCHAR x
ENCODING 120
SWIDTH 500 0
DWIDTH 25 0
BBX 29 25 -2 -1
BITMAP
00F801E0
01FE03E0
03FE07E0
03FF0FC0
063F1CC0
0C1F1840
001F3000
001F6000
000FC000
000FC000
000F8000
000F8000
000F8000
000F8000
000FC000
001FC000
0017C000
0037C000
0067E080
30C7E180
31C3F300
3F83FE00
3F03FC00
3E01F800
3800E000
ENDCHAR

STARTCHAR y
ENCODING 121
SWIDTH 556 0
DWIDTH 28 0
BBX 30 38 -1 -14
BITMAP
00700070
01F803F0
03F803E0
07F803E0
1CF807E0
38F807C0
20F007C0
00F007C0
00F00FC0
01F00F80
01F00F80
01F01F80
01F01F80
01F03F00
01F03F00
01E07F00
01E0FE00
03E0FE00
03E1BE00
03E33E00
03F67C00
03FC7C00
03F87C00
03F07800
01E0F800
0000F800
0000F000
0000F000
0001E000
0001E000
0003C000
04038000
0C030000
3C060000
3E0E0000
3F180000
1FF00000
07C00000
ENDCHAR

STARTCHAR z
ENCODING 122
SWIDTH 500 0
DWIDTH 25 0
BBX 25 25 0 -1
BITMAP
03F00200
03FF0600
07FFFE00
07FFFC00
07FFF800
0C1FB800
0C007000
0800E000
0001C000
00038000
00070000
000E0000
001C0000
00380000
00700000
00E00000
01C00000
03800400
07000C00
0EFE0C00
1FFFF800
1FFFF800
3FFFF800
603FF800
0003F000
ENDCHAR

STARTCHAR braceleft
ENCODING 123
SWIDTH 333 0
DWIDTH 17 0
BBX 24 47 -1 -11
BITMAP
00001C
0000FC
0003E0
0007C0
000F80
001F00
003F00
003F00
007F00
007F00
007F00
007F00
007F00
007F00
007E00
007E00
00FC00
00FC00
00F800
01F000
01E000
078000
1E0000
300000
1E0000
0F0000
078000
07C000
07E000
07E000
07E000
0FE000
0FC000
1FC000
1FC000
3F8000
3F8000
3F0000
7F0000
7E0000
7E0000
7E0000
3E0000
3E0000
1F0000
07C000
00C000
ENDCHAR

STARTCHAR bar
ENCODING 124
SWIDTH 606 0
DWIDTH 30 0
BBX 7 45 12 -9
BITMAP
7C
7C
7C
7C
7C
7C
7C
7C
7C
7C
7C
7C
7C
7C
7C
7C
7C
7C
7C
7C
7C
7C
7C
7C
7C
7C
7C
7C
7C
7C
7C
7C
7C
7C
7C
7C
7C
7C
7C
7C
7C
7C
7C
7C
7C
ENDCHAR

STARTCHAR braceright
ENCODING 125
SWIDTH 333 0
DWIDTH 17 0
BBX 24 47 -6 -11
BITMAP
000380
0003E0
0000F8
00007C
00007C
00007E
00007E
00007E
0000FE
0000FC
0001FC
0001FC
0003F8
0003F8
0003F0
0007F0
0007E0
0007E0
0003E0
0003E0
0001E0
0000F0
00007C
00000C
000078
0001E0
000780
000F80
001F00
003F00
007F00
007F00
007F00
00FE00
00FE00
00FE00
00FE00
00FE00
00FE00
00FC00
00FC00
00F800
01F000
03E000
07C000
3F0000
300000
ENDCHAR

STARTCHAR asciitilde
ENCODING 126
SWIDTH 606 0
DWIDTH 30 0
BBX 30 9 0 12
BITMAP
03E00010
0FFC0010
1FFF8030
1FFFE070
3FFFFFF0
381FFFE0
3003FFE0
3000FFC0
20001F00
ENDCHAR

STARTCHAR space
ENCODING 160
SWIDTH 250 0
DWIDTH 16 0
BBX 0 0 0 0
BITMAP
ENDCHAR

STARTCHAR exclamdown
ENCODING 161
SWIDTH 333 0
DWIDTH 17 0
BBX 15 35 -1 -11
BITMAP
0078
00FC
00FC
01FC
01FC
01F8
00F0
0000
0000
0000
0060
00E0
00E0
00C0
01C0
01C0
01C0
03C0
03C0
03C0
03C0
07C0
07C0
07C0
0FC0
0FC0
0F80
0F80
1F80
1F80
1F80
3F80
3F80
3F80
7000
ENDCHAR

STARTCHAR cent
ENCODING 162
SWIDTH 500 0
DWIDTH 25 0
BBX 23 33 2 0
BITMAP
0000C0
000180
000180
000180
000FF0
003FF8
00FFF8
01E3F0
03C630
078630
0F8630
1F0C30
1F0C00
1F0C00
3F1800
3E1800
3E1800
7E1800
7E3000
7E3000
7E3000
7E6000
7E6070
7F60E0
3FC7C0
3FFF00
1FFC00
07F000
018000
018000
018000
030000
030000
ENDCHAR

STARTCHAR sterling
ENCODING 163
SWIDTH 500 0
DWIDTH 25 0
BBX 26 35 0 0
BITMAP
0000FE00
0003FF00
0007FF00
001F0F00
003C0600
007C0200
00F80600
01F80600
03F00000
03F00000
03F00000
07F00000
07F00000
07F00000
07F00000
07F00000
07E00000
7FFFE000
7FFFE000
07E00000
07E00000
07E00000
07C00000
07C00000
07C00000
07800000
07800200
07000600
07000600
0E000C00
0FFFFC00
7FFFFC00
79FFFC00
700FF800
6001F800
ENDCHAR

STARTCHAR currency
ENCODING 164
SWIDTH 606 0
DWIDTH 30 0
BBX 29 25 1 5
BITMAP
0C3FE180
1EFFFBC0
3FFFFFE0
3FFFFFE0
1FFFFFC0
0FF8FF80
1FC01FC0
1F800FC0
1F0007E0
3F0007E0
3E0003E0
3E0003E0
3E0003E0
3E0003E0
3F0003E0
3F0007E0
3F0007C0
1F800FC0
1FC01FC0
0FF07F80
1FFFFFC0
3FFFFFE0
3FFFFFE0
1EFFFBC0
0C3FE180
ENDCHAR

STARTCHAR yen
ENCODING 165
SWIDTH 500 0
DWIDTH 25 0
BBX 34 34 -2 0
BITMAP
07C0000100
0FE0000700
3FF0001F00
7FF8003F00
47F8003F00
03F8007C00
01FC00F000
00FC01E000
00FE01C000
007E038000
007E070000
007F070000
003F0E0000
003F0C0000
003F1C0000
003F180000
001FB80000
001FB00000
001FF00000
0FFFFFF000
0FFFFFE000
000FE00000
000FC00000
000FC00000
000FC00000
000FC00000
1FFFFFC000
1FFFFFC000
001F800000
001F800000
001F800000
003F800000
007FE00000
03FFFC0000
ENDCHAR

STARTCHAR brokenbar
ENCODING 166
SWIDTH 606 0
DWIDTH 30 0
BBX 7 45 12 -9
BITMAP
7C
7C
7C
7C
7C
7C
7C
7C
7C
7C
7C
7C
7C
7C
7C
7C
7C
00
00
00
00
00
00
00
00
00
00
00
7C
7C
7C
7C
7C
7C
7C
7C
7C
7C
7C
7C
7C
7C
7C
7C
7C
ENDCHAR

STARTCHAR section
ENCODING 167
SWIDTH 556 0
DWIDTH 28 0
BBX 25 42 1 -7
BITMAP
001FF000
007FFC00
00F0FE00
01C03E00
01800E00
03800E00
03800C00
07800C00
07C00C00
07E00000
03F80000
01FE0000
01FF0000
01FFC000
03BFF000
070FF800
0E03FC00
1E01FC00
1E007E00
1E003E00
1F001E00
1F801E00
1FC01E00
0FF01C00
07F81800
03FE3800
01FFF000
007FC000
003FE000
000FF000
0003F800
0001F800
1000F800
10007800
30007800
30007000
30007000
3800E000
3C01C000
3F078000
0FFE0000
03F80000
ENDCHAR

STARTCHAR dieresis
ENCODING 168
SWIDTH 333 0
DWIDTH 17 0
BBX 18 6 3 26
BITMAP
3C0F00
3C0F80
7E1F80
7E1F80
3C0F80
1C0700
ENDCHAR

STARTCHAR copyright
ENCODING 169
SWIDTH 747 0
DWIDTH 37 0
BBX 39 36 -1 -1
BITMAP
0001FF0000
0007FFE000
001F01F800
007C003C00
00F0000E00
01C0000700
0380000380
0700FF11C0
0603E1F0E0
0E07807060
0C0F003070
1C1F003030
183E001030
183E001038
383E000018
307E000018
307E000018
307E000018
307E000018
307E000018
307E000018
383E000018
183E000038
181F000030
1C1F802030
0C0FC06060
0E07E1C060
0701FF00C0
03000001C0
0380000380
01E0000700
00F0001E00
007C003C00
001F81F000
0007FFE000
0000FF0000
ENDCHAR

STARTCHAR ordfeminine
ENCODING 170
SWIDTH 333 0
DWIDTH 17 0
BBX 19 15 2 20
BITMAP
007D80
01FF80
038F00
070F00
0F0F00
0E1E00
1E1E00
1E3E00
1C3E00
3C7C00
3CDC80
3DBD80
3F3F00
3E3E00
181800
ENDCHAR

STARTCHAR guillemotleft
ENCODING 171
SWIDTH 500 0
DWIDTH 25 0
BBX 24 20 0 2
BITMAP
001806
00380C
00701C
00E038
01E070
03C0F0
0783E0
0F87C0
3F0FC0
3E1F80
3E0F80
1F0780
0F07C0
0783C0
0381E0
03C0E0
01C070
00E030
006018
002008
ENDCHAR

STARTCHAR logicalnot
ENCODING 172
SWIDTH 606 0
DWIDTH 30 0
BBX 28 14 1 10
BITMAP
3FFFFFE0
3FFFFFE0
3FFFFFE0
3FFFFFE0
3FFFFFE0
000003E0
000003E0
000003E0
000003E0
000003E0
000003E0
000003E0
000003E0
000003E0
ENDCHAR

STARTCHAR hyphen
ENCODING 173
SWIDTH 389 0
DWIDTH 19 0
BBX 20 5 -1 10
BITMAP
0FFFE0
0FFFC0
1FFF80
1FFF80
3FFF00
ENDCHAR

STARTCHAR registered
ENCODING 174
SWIDTH 747 0
DWIDTH 37 0
BBX 39 36 0 -1
BITMAP
0001FF0000
000FFFE000
001F01F800
0078003C00
00F0000E00
01C0000700
0380000380
07000001C0
063FFF80C0
0E0F87C0E0
0C0F83E060
1C0F83F070
180F81F030
180F81F038
380F81F018
300F83F018
300F83E018
300F8FC018
300FFF0018
300F9F0018
300F9F8018
300F8F8018
380F8FC038
180F87C030
180F87E030
1C0F83E070
0C0FC1F060
0E3FF1FCE0
07000001C0
0380000380
01C0000700
00E0000E00
0078003C00
003F01F800
000FFFE000
0001FF0000
ENDCHAR

STARTCHAR macron
ENCODING 175
SWIDTH 333 0
DWIDTH 17 0
BBX 20 3 2 28
BITMAP
3FFFC0
3FFFC0
3FFFC0
ENDCHAR

STARTCHAR degree
ENCODING 176
SWIDTH 396 0
DWIDTH 20 0
BBX 18 16 3 19
BITMAP
03F000
07FC00
1FFE00
1E1F00
380700
380780
700380
700380
700380
700380
380700
380700
1E1E00
1FFE00
0FFC00
01F000
ENDCHAR

STARTCHAR plusminus
ENCODING 177
SWIDTH 606 0
DWIDTH 30 0
BBX 27 33 2 0
BITMAP
001F0000
001F0000
001F0000
001F0000
001F0000
001F0000
001F0000
001F0000
001F0000
001F0000
7FFFFFC0
7FFFFFC0
7FFFFFC0
7FFFFFC0
7FFFFFC0
001F0000
001F0000
001F0000
001F0000
001F0000
001F0000
001F0000
001F0000
001F0000
001F0000
00000000
00000000
00000000
7FFFFFC0
7FFFFFC0
7FFFFFC0
7FFFFFC0
7FFFFFC0
ENDCHAR

STARTCHAR twosuperior
ENCODING 178
SWIDTH 361 0
DWIDTH 18 0
BBX 18 21 0 14
BITMAP
01F800
03FC00
07FE00
0E1F00
0C0F00
080F00
080F00
000F00
000E00
001E00
001C00
003800
007000
00E000
01C000
018000
030000
060000
1FFF00
3FFF00
3FFF00
ENDCHAR

STARTCHAR threesuperior
ENCODING 179
SWIDTH 361 0
DWIDTH 18 0
BBX 18 21 1 14
BITMAP
00F800
03FE00
07FF00
061F00
0C0F00
000F00
000F00
001E00
003C00
03F000
03FE00
001F00
000F00
000F00
000F00
100F00
300E00
301E00
383C00
3FF000
0FC000
ENDCHAR

STARTCHAR acute
ENCODING 180
SWIDTH 333 0
DWIDTH 17 0
BBX 15 9 5 26
BITMAP
0030
0078
00F8
01F8
03F0
07C0
0F00
1E00
3800
ENDCHAR

STARTCHAR mu
ENCODING 181
SWIDTH 588 0
DWIDTH 29 0
BBX 31 31 -3 -9
BITMAP
007E00FC
007C00F8
007C00F8
00FC01F8
00FC01F8
00FC01F8
00FC01F8
00F801F0
00F801F0
01F803F0
01F803F0
01F803F0
01F003E0
01F003E0
03F003E0
03F007E0
03F007E0
03F00FE0
07F83FE0
07FFF7FC
077FE7F8
0F7F87C0
0F1E0200
0F000000
1F000000
1F000000
1F000000
3F000000
3F000000
3F000000
1E000000
ENDCHAR

STARTCHAR paragraph
ENCODING 182
SWIDTH 556 0
DWIDTH 28 0
BBX 31 46 -1 -12
BITMAP
001FFFFC
01FFFFFC
03FFC3C0
07FFC380
0FFFC380
1FFFC380
1FFFC380
3FFFC380
3FFFC380
3FFFC380
3FFFC380
3FFFC380
3FFFC380
3FFFC380
3FFFC380
3FFFC380
1FFFC380
1FFFC380
0FFFC380
0FFFC380
03FFC380
01FFC380
007FC380
0001C380
0001C380
0001C380
0001C380
0001C380
0001C380
0001C380
0001C380
0001C380
0001C380
0001C380
0001C380
0001C380
0001C380
0001C380
0001C380
0001C380
0001C380
0001C380
0001C380
0001C380
0001C380
0001C380
ENDCHAR

STARTCHAR periodcentered
ENCODING 183
SWIDTH 250 0
DWIDTH 13 0
BBX 9 8 1 13
BITMAP
1C00
3E00
7F00
7F00
7F00
7F00
3E00
1C00
ENDCHAR

STARTCHAR cedilla
ENCODING 184
SWIDTH 333 0
DWIDTH 17 0
BBX 15 11 -7 -11
BITMAP
0180
0180
0300
07E0
07F0
00F8
0078
0078
00F8
3FF0
0FC0
ENDCHAR

STARTCHAR onesuperior
ENCODING 185
SWIDTH 361 0
DWIDTH 18 0
BBX 16 20 1 14
BITMAP
0018
00F8
07F8
1FF8
18F8
00F0
00F0
00F0
00F0
01F0
01F0
01E0
01E0
01E0
01E0
03E0
03E0
03C0
03E0
3FFC
ENDCHAR

STARTCHAR ordmasculine
ENCODING 186
SWIDTH 333 0
DWIDTH 17 0
BBX 19 15 2 20
BITMAP
007C00
01FF00
078F80
0F0780
1E0780
1E0780
1E0780
3C0780
3C0F00
3C0F00
3C0F00
3C1E00
3E3C00
1FF000
0FC000
ENDCHAR

STARTCHAR guillemotright
ENCODING 187
SWIDTH 500 0
DWIDTH 25 0
BBX 24 20 0 2
BITMAP
180600
1C0600
0C0700
0E0380
0703C0
0781E0
03C1F0
03E0F0
01F0F8
01F87C
01F87C
03F0F8
03C1F0
0783E0
0F03C0
0E0780
1C0F00
380E00
701800
201000
ENDCHAR

STARTCHAR onequarter
ENCODING 188
SWIDTH 889 0
DWIDTH 44 0
BBX 43 34 1 0
BITMAP
00180001C000
00F800038000
0FF800038000
1EF800070000
18F800060000
00F0000E0000
00F0001C0000
00F0001C0000
00F000380000
01F000300000
01F000700000
01E000E00000
01E000E00000
01E001C00000
01E001800E00
03E003803E00
03E007006E00
03C007005E00
03E00E009E00
3FFC0C019E00
3FFC1C031C00
000038021C00
000038043C00
0000700C3C00
000060183C00
0000E0103C00
0001C0303800
0001C03FFF80
0003807FFF80
000700007800
000700007800
000E00007800
001E0000F800
001C0007FF00
ENDCHAR

STARTCHAR onehalf
ENCODING 189
SWIDTH 889 0
DWIDTH 44 0
BBX 41 34 1 0
BITMAP
003800038000
01F800070000
0FF800070000
3EF0000E0000
30F0001C0000
00F0001C0000
00F000380000
01F000300000
01E000700000
01E000E00000
01E000E00000
01E001C00000
01E003800000
03E00383F000
03C00707F800
03C0060FFC00
03C00E1C3E00
03C01C181E00
07E01C101E00
3FFC38101E00
000030001E00
000070001C00
0000E0003C00
0000E0003800
0001C0007000
00018000E000
00038001C000
000700038000
000700030000
000E00060000
000C000C0000
001C003FFE00
0038007FFE00
0038007FFE00
ENDCHAR

STARTCHAR threequarters
ENCODING 190
SWIDTH 889 0
DWIDTH 44 0
BBX 43 34 1 1
BITMAP
00F800000000
03FE00038000
07FF00078000
061F00070000
0C0F000E0000
000F000E0000
000F001C0000
001E00380000
003C00380000
03F000700000
03FE00600000
001F00E00000
000F01C00000
000F01C00000
000F03800700
100F07001E00
300E07002E00
301E0E007E00
383C0C00DE00
3FF01C019E00
0FC038031C00
000038021C00
000070061C00
0000E00C3C00
0000E0083C00
0001C0103C00
000180303C00
0003803FFF80
0007007FFF80
000700007800
000E00007800
001C00007800
001C00007800
00380007FF00
ENDCHAR

STARTCHAR questiondown
ENCODING 191
SWIDTH 444 0
DWIDTH 22 0
BBX 21 35 -3 -11
BITMAP
0003C0
0007E0
0007E0
000FE0
000FE0
0007C0
000780
000000
000000
000000
000600
000300
000300
000300
000700
000F00
001E00
003C00
00FC00
01F800
03F000
07E000
0FC000
1F8000
1F8000
3F0000
3F0030
3F0060
3F0060
3F80C0
1FC1C0
1FFFC0
0FFFC0
07FF00
00FC00
ENDCHAR

STARTCHAR Agrave
ENCODING 192
SWIDTH 722 0
DWIDTH 36 0
BBX 39 46 -4 0
BITMAP
0000038000
000007C000
000003E000
000003F000
000000F800
0000007800
0000001C00
0000000E00
0000000000
0000000000
0000000000
000000F800
000001F800
000001F800
000003F800
000007F800
000007F800
00000FFC00
00000CFC00
00001CFC00
000018FC00
000038FC00
000070FC00
000060FE00
0000E0FE00
0000C07E00
0001C07E00
0001807E00
0003007E00
0007007F00
0007FFFF00
000FFFFF00
000C003F00
001C003F00
0038003F00
0038003F00
0070003F80
0070003F80
00E0003F80
00E0001F80
01C0001F80
03C0001F80
0380001FC0
07C0001FC0
3FFC01FFFC
3FF801FFFC
ENDCHAR

STARTCHAR Aacute
ENCODING 193
SWIDTH 722 0
DWIDTH 36 0
BBX 39 46 -4 0
BITMAP
0000000780
0000000F80
0000001F80
0000003F00
0000007C00
000000F800
000001E000
0000038000
0000000000
0000000000
0000000000
000000F800
000001F800
000001F800
000003F800
000007F800
000007F800
00000FFC00
00000CFC00
00001CFC00
000018FC00
000038FC00
000070FC00
000060FE00
0000E0FE00
0000C07E00
0001C07E00
0001807E00
0003007E00
0007007F00
0007FFFF00
000FFFFF00
000C003F00
001C003F00
0038003F00
0038003F00
0070003F80
0070003F80
00E0003F80
00E0001F80
01C0001F80
03C0001F80
0380001FC0
07C0001FC0
3FFC01FFFC
3FF801FFFC
ENDCHAR

STARTCHAR Acircumflex
ENCODING 194
SWIDTH 722 0
DWIDTH 36 0
BBX 39 46 -4 0
BITMAP
0000007800
000000FC00
000001FC00
000003FE00
0000078E00
00000F0F00
00001E0700
0000380380
0000000000
0000000000
0000000000
000000F800
000001F800
000001F800
000003F800
000007F800
000007F800
00000FFC00
00000CFC00
00001CFC00
000018FC00
000038FC00
000070FC00
000060FE00
0000E0FE00
0000C07E00
0001C07E00
0001807E00
0003007E00
0007007F00
0007FFFF00
000FFFFF00
000C003F00
001C003F00
0038003F00
0038003F00
0070003F80
0070003F80
00E0003F80
00E0001F80
01C0001F80
03C0001F80
0380001FC0
07C0001FC0
3FFC01FFFC
3FF801FFFC
ENDCHAR

STARTCHAR Atilde
ENCODING 195
SWIDTH 722 0
DWIDTH 36 0
BBX 39 45 -4 0
BITMAP
000007C060
00000FF060
00001FFCC0
000039FFC0
0000307F80
0000201F00
0000000000
0000000000
0000000000
0000000000
000000F800
000001F800
000001F800
000003F800
000007F800
000007F800
00000FFC00
00000CFC00
00001CFC00
000018FC00
000038FC00
000070FC00
000060FE00
0000E0FE00
0000C07E00
0001C07E00
0001807E00
0003007E00
0007007F00
0007FFFF00
000FFFFF00
000C003F00
001C003F00
0038003F00
0038003F00
0070003F80
0070003F80
00E0003F80
00E0001F80
01C0001F80
03C0001F80
0380001FC0
07C0001FC0
3FFC01FFFC
3FF801FFFC
ENDCHAR

STARTCHAR Adieresis
ENCODING 196
SWIDTH 722 0
DWIDTH 36 0
BBX 39 44 -4 0
BITMAP
00001E0780
00001F07C0
00003F0FC0
00003F0FC0
00003F07C0
00001E0780
0000000000
0000000000
0000000000
000001F000
000001F800
000003F800
000003F800
000007F800
000007F800
00000FF800
00000DF800
000019FC00
000038FC00
000030FC00
000070FC00
000060FC00
0000E0FC00
0001C0FC00
000180FE00
0003807E00
0003007E00
0007007E00
0007FFFE00
000FFFFE00
001C007F00
001C007F00
0038003F00
0038003F00
0070003F00
00E0003F00
00E0003F00
01C0003F80
01C0003F80
0380003F80
0380001F80
0780003FC0
3FF803FFF8
7FF803FFF8
ENDCHAR

STARTCHAR Aring
ENCODING 197
SWIDTH 722 0
DWIDTH 36 0
BBX 39 47 -4 0
BITMAP
0000007C00
000001FE00
000001CE00
0000038700
0000038700
0000038700
0000038700
000001CE00
000001FE00
0000007800
0000000000
0000000000
000000F800
000000F800
000001F800
000003F800
000003F800
000007F800
000006FC00
00000EFC00
00000CFC00
000018FC00
000038FC00
000030FC00
0000707E00
0000607E00
0000E07E00
0001C07E00
0001807E00
0003807E00
0003007E00
0007FFFF00
0007FFFF00
000E003F00
001C003F00
001C003F00
0038003F00
0038003F00
0070001F80
00E0001F80
00E0001F80
01C0001F80
01C0001F80
03C0001FC0
07C0001FC0
3FFC01FFFC
3FFC01FFFC
ENDCHAR

STARTCHAR AE
ENCODING 198
SWIDTH 944 0
DWIDTH 47 0
BBX 51 34 -3 0
BITMAP
00003FFFFFFF80
00003FFFFFFF80
000001E7E00780
000001C7E00380
00000387E00180
0000030FE00180
0000070FE00100
0000060FC00300
00000E0FC00000
00001C0FC00000
0000180FC00000
0000381FC00000
0000701FC00000
0000601F800000
0000E01F800000
0001C01FFFF000
0001803FFFF000
0003803F800000
0007FFFF000000
0007FFFF000000
000E003F000000
001C003F000000
001C003F000000
0038007F000000
0070007E000000
0070007E000600
00E0007E000600
01E0007E000600
01C0007E000C00
03C000FE000C00
038000FE001C00
078000FE00FC00
3FF803FFFFFC00
7FF807FFFFFC00
ENDCHAR

STARTCHAR Ccedilla
ENCODING 199
SWIDTH 685 0
DWIDTH 34 0
BBX 34 46 2 -11
BITMAP
00003FF000
0001FFFE00
0007FFFF00
001F807F00
003E001F00
00F8000700
01F0000600
03E0000600
07E0000600
07C0000600
0FC0000000
1FC0000000
1F80000000
1F80000000
3F80000000
3F80000000
3F00000000
7F00000000
7F00000000
7F00000000
7F00000000
7F00000000
7F00000000
7F00000000
7F00000000
7F80000000
3F80000000
3F80000000
3FC0000000
1FE0001800
1FF0007800
0FFC01F000
07FFFFC000
01FFFF0000
007FF80000
0003000000
0006000000
0006000000
000FC00000
001FE00000
0001F00000
0000F00000
0000F00000
0041F00000
007FE00000
001F800000
ENDCHAR

STARTCHAR Egrave
ENCODING 200
SWIDTH 611 0
DWIDTH 31 0
BBX 33 46 -2 0
BITMAP
0000C00000
0001E00000
0001F00000
0000F80000
00007C0000
00003C0000
00000E0000
0000070000
0000038000
0000000000
0000000000
0000000000
03FFFFFF00
007FFFFE00
003F801E00
003F800600
003F800600
003F000600
003F000600
003F000600
003F000000
007F000000
007F000000
007E000000
007E000000
007E000000
007E000000
00FFFFC000
00FFFFC000
00FC000000
00FC000000
00FC000000
00FC000000
01FC000000
01FC000000
01F8000000
01F8000000
01F8001800
01F8001800
03F8001800
03F8001800
03F8003800
03F0007000
07FFFFF000
3FFFFFF000
3FFFFFF000
ENDCHAR

STARTCHAR Eacute
ENCODING 201
SWIDTH 611 0
DWIDTH 31 0
BBX 33 46 -2 0
BITMAP
000000C000
000003E000
000007E000
000007C000
00000F8000
00001E0000
00003C0000
0000700000
0000C00000
0000000000
0000000000
0000000000
03FFFFFF00
007FFFFE00
003F801E00
003F800600
003F800600
003F000600
003F000600
003F000600
003F000000
007F000000
007F000000
007E000000
007E000000
007E000000
007E000000
00FFFFC000
00FFFFC000
00FC000000
00FC000000
00FC000000
00FC000000
01FC000000
01FC000000
01F8000000
01F8000000
01F8001800
01F8001800
03F8001800
03F8001800
03F8003800
03F0007000
07FFFFF000
3FFFFFF000
3FFFFFF000
ENDCHAR

STARTCHAR Ecircumflex
ENCODING 202
SWIDTH 611 0
DWIDTH 31 0
BBX 33 46 -2 0
BITMAP
00001C0000
00003E0000
00007F0000
0000FF0000
0001F78000
0003C78000
000383C000
000701C000
000C00E000
0000000000
0000000000
0000000000
03FFFFFF00
007FFFFE00
003F801E00
003F800600
003F800600
003F000600
003F000600
003F000600
003F000000
007F000000
007F000000
007E000000
007E000000
007E000000
007E000000
00FFFFC000
00FFFFC000
00FC000000
00FC000000
00FC000000
00FC000000
01FC000000
01FC000000
01F8000000
01F8000000
01F8001800
01F8001800
03F8001800
03F8001800
03F8003800
03F0007000
07FFFFF000
3FFFFFF000
3FFFFFF000
ENDCHAR

STARTCHAR Edieresis
ENCODING 203
SWIDTH 611 0
DWIDTH 31 0
BBX 32 43 -1 0
BITMAP
000F03C0
000F83E0
001F87E0
001F87E0
000F03E0
000701C0
00000000
00000000
00000000
07FFFFFE
00FFFFFC
007F003C
003F000C
007F000C
007F000C
007E000C
007E0008
007E0000
007E0000
00FE0000
00FE0000
00FC0000
00FC0000
00FC0000
00FFFF80
01FFFF80
01FC0000
01F80000
01F80000
01F80000
01F80000
03F80000
03F80000
03F00000
03F00030
03F00030
03F00030
07F00070
07F00060
07F000E0
0FFFFFE0
7FFFFFE0
7FFFFFE0
ENDCHAR

STARTCHAR Igrave
ENCODING 204
SWIDTH 389 0
DWIDTH 19 0
BBX 24 45 -2 0
BITMAP
001C00
003E00
003F00
001F80
000780
0003C0
0000E0
000070
000000
000000
000000
03FFFC
03FFFC
001FC0
001FC0
001F80
001F80
001F80
003F80
003F80
003F00
003F00
003F00
003F00
003F00
007F00
007E00
007E00
007E00
007E00
00FE00
00FE00
00FC00
00FC00
00FC00
00FC00
01FC00
01FC00
01FC00
01F800
01F800
01F800
03FC00
3FFFC0
3FFFC0
ENDCHAR

STARTCHAR Iacute
ENCODING 205
SWIDTH 389 0
DWIDTH 19 0
BBX 24 45 -2 0
BITMAP
000038
00007C
0000FC
0001F8
0003E0
000780
000F00
001C00
000000
000000
000000
03FFFC
03FFFC
001FC0
001FC0
001F80
001F80
001F80
003F80
003F80
003F00
003F00
003F00
003F00
003F00
007F00
007E00
007E00
007E00
007E00
00FE00
00FE00
00FC00
00FC00
00FC00
00FC00
01FC00
01FC00
01FC00
01F800
01F800
01F800
03FC00
3FFFC0
3FFFC0
ENDCHAR

STARTCHAR Icircumflex
ENCODING 206
SWIDTH 389 0
DWIDTH 19 0
BBX 24 45 -2 0
BITMAP
0003C0
0007E0
000FE0
001FF0
003CF0
007878
00E038
01C01C
000000
000000
000000
03FFFC
03FFFC
001FC0
001FC0
001F80
001F80
001F80
003F80
003F80
003F00
003F00
003F00
003F00
003F00
007F00
007E00
007E00
007E00
007E00
00FE00
00FE00
00FC00
00FC00
00FC00
00FC00
01FC00
01FC00
01FC00
01F800
01F800
01F800
03FC00
3FFFC0
3FFFC0
ENDCHAR

STARTCHAR Idieresis
ENCODING 207
SWIDTH 389 0
DWIDTH 19 0
BBX 24 43 -2 0
BITMAP
00F03C
00F03E
01F87E
01F87E
00F03E
00F03C
000000
000000
000000
03FFFC
03FFFC
001FC0
001F80
001F80
001F80
001F80
003F80
003F00
003F00
003F00
003F00
003F00
003F00
007E00
007E00
007E00
007E00
007E00
00FE00
00FC00
00FC00
00FC00
00FC00
00FC00
01FC00
01FC00
01F800
01F800
01F800
03F800
03F800
3FFFC0
3FFF80
ENDCHAR

STARTCHAR Gbreve
ENCODING 208
SWIDTH 778 0
DWIDTH 39 0
BBX 37 46 2 -1
BITMAP
0001800C00
0001800C00
0001801800
0001C03800
0001F0F000
0000FFF000
00007FC000
00001F0000
0000000000
0000000000
00001FF800
0000FFFF80
0007FFFFC0
000FC03FC0
003E000780
007C000380
00F8000380
01F0000380
03E0000300
07E0000300
0FC0000300
0FC0000000
1F80000000
1F80000000
1F80000000
3F80000000
3F00000000
3F00000000
3F00000000
7F00000000
7F00000000
7F000FFFE0
7F000FFFE0
7F00007F00
7F00007F00
7F00007E00
3F00007E00
3F80007E00
3F80007E00
1F8000FE00
1FC000FC00
0FE000FC00
07F000FC00
03FE07F800
00FFFFC000
003FFC0000
ENDCHAR

STARTCHAR Ntilde
ENCODING 209
SWIDTH 778 0
DWIDTH 39 0
BBX 44 44 -2 0
BITMAP
00000F00C000
00003FC18000
00003FF18000
000073FF0000
000060FF0000
0000C03C0000
000000000000
000000000000
000000000000
000000000000
0FFF0001FFE0
0FFF0001FFC0
007F80001E00
003F80001C00
003FC0001C00
003FE0001C00
003FE0001C00
003FF0003800
0037F0003800
0033F8003800
0073F8003800
0071FC003800
0071FE003000
0060FE003000
00607F007000
00607F007000
00E03F806000
00E03FC06000
00E01FC06000
00C00FE06000
00C00FF0E000
00C007F0E000
01C007F8C000
01C003F8C000
01C001FCC000
018001FFC000
038000FFC000
038000FFC000
0380007F8000
0380003F8000
0380003F8000
0780001F8000
7FF8001F8000
7FF8000F8000
ENDCHAR

STARTCHAR Ograve
ENCODING 210
SWIDTH 833 0
DWIDTH 42 0
BBX 38 47 2 -1
BITMAP
0000380000
00007C0000
00007E0000
00003E0000
00001F0000
0000078000
000003C000
000000C000
0000006000
0000000000
0000000000
0000FFE000
0007FFFC00
001FC0FE00
007E003F80
00FC001FC0
01F8000FE0
03F00007E0
07F00007F0
07E00003F0
0FE00003F0
0FC00003F8
1FC00003F8
1F800003F8
3F800003F8
3F800003F8
3F800003F8
3F800003F8
7F000003F8
7F000003F8
7F000007F0
7F000007F0
7F000007F0
7F000007E0
7F00000FE0
7F00000FE0
7F00000FC0
3F00001FC0
3F80001F80
3F80003F00
1F80003E00
0FC0007C00
0FE000F800
07F001F000
01FC0FC000
00FFFF0000
001FF80000
ENDCHAR

STARTCHAR Oacute
ENCODING 211
SWIDTH 833 0
DWIDTH 42 0
BBX 38 47 2 -1
BITMAP
0000007000
000000F800
000001F800
000003F000
000007E000
00000F8000
00001E0000
00001C0000
0000300000
0000000000
0000000000
0000FFE000
0007FFFC00
001FC0FE00
007E003F80
00FC001FC0
01F8000FE0
03F00007E0
07F00007F0
07E00003F0
0FE00003F0
0FC00003F8
1FC00003F8
1F800003F8
3F800003F8
3F800003F8
3F800003F8
3F800003F8
7F000003F8
7F000003F8
7F000007F0
7F000007F0
7F000007F0
7F000007E0
7F00000FE0
7F00000FE0
7F00000FC0
3F00001FC0
3F80001F80
3F80003F00
1F80003E00
0FC0007C00
0FE000F800
07F001F000
01FC0FC000
00FFFF0000
001FF80000
ENDCHAR

STARTCHAR Ocircumflex
ENCODING 212
SWIDTH 833 0
DWIDTH 42 0
BBX 38 47 2 -1
BITMAP
0000078000
00000F8000
00001FC000
00003FC000
000079E000
0000F0E000
0001E07000
0003803800
0003001800
0000000000
0000000000
0000FFE000
0007FFFC00
001FC0FE00
007E003F80
00FC001FC0
01F8000FE0
03F00007E0
07F00007F0
07E00003F0
0FE00003F0
0FC00003F8
1FC00003F8
1F800003F8
3F800003F8
3F800003F8
3F800003F8
3F800003F8
7F000003F8
7F000003F8
7F000007F0
7F000007F0
7F000007F0
7F000007E0
7F00000FE0
7F00000FE0
7F00000FC0
3F00001FC0
3F80001F80
3F80003F00
1F80003E00
0FC0007C00
0FE000F800
07F001F000
01FC0FC000
00FFFF0000
001FF80000
ENDCHAR

STARTCHAR Otilde
ENCODING 213
SWIDTH 833 0
DWIDTH 42 0
BBX 38 46 2 -1
BITMAP
0000000600
00007C0600
0001FF0C00
0001FFFC00
000307F800
000301F000
0000000000
0000000000
0000000000
0000000000
0000FFE000
0007FFFC00
001FC0FE00
007E003F80
00FC001FC0
01F8000FE0
03F00007E0
07F00007F0
07E00003F0
0FE00003F0
0FC00003F8
1FC00003F8
1F800003F8
3F800003F8
3F800003F8
3F800003F8
3F800003F8
7F000003F8
7F000003F8
7F000007F0
7F000007F0
7F000007F0
7F000007E0
7F00000FE0
7F00000FE0
7F00000FC0
3F00001FC0
3F80001F80
3F80003F00
1F80003E00
0FC0007C00
0FE000F800
07F001F000
01FC0FC000
00FFFF0000
001FF80000
ENDCHAR

STARTCHAR Odieresis
ENCODING 214
SWIDTH 833 0
DWIDTH 42 0
BBX 38 44 2 -1
BITMAP
0001E07800
0001F07C00
0003F0FC00
0003F0FC00
0001E07800
0000C03000
0000000000
0000000000
0000FFE000
0007FFFC00
001FC0FE00
007E003F80
00FC001FC0
01F8000FE0
03F00007E0
07F00007F0
07E00003F0
0FE00003F0
0FC00003F8
1FC00003F8
1F800003F8
3F800003F8
3F800003F8
3F800003F8
3F800003F8
7F000003F8
7F000003F8
7F000007F0
7F000007F0
7F000007F0
7F000007E0
7F00000FE0
7F00000FE0
7F00000FC0
3F00001FC0
3F80001F80
3F80003F00
1F80003E00
0FC0007C00
0FE000F800
07F001F000
01FC0FC000
00FFFF0000
001FF80000
ENDCHAR

STARTCHAR multiply
ENCODING 215
SWIDTH 606 0
DWIDTH 30 0
BBX 24 21 3 6
BITMAP
0C0018
1E003C
3F007E
3F80FC
1FC1F8
0FE7F0
07FFE0
03FFC0
01FF80
00FF00
007F00
00FF80
01FFC0
03FFE0
07E7F0
0FC3F8
1F81FC
3F00FE
1E007C
0C0038
000010
ENDCHAR

STARTCHAR Oslash
ENCODING 216
SWIDTH 833 0
DWIDTH 42 0
BBX 40 40 1 -3
BITMAP
0000000008
000000001C
00007FF038
0003FFFE70
000FE07FE0
001F001FC0
007E000FE0
00FC0007E0
01F8000FF0
03F8001FF8
03F0001DF8
07F00039F8
07E00071FC
0FE000E1FC
0FC001C1FC
1FC00381FC
1FC00781FC
1FC00F01FC
1FC01E01FC
3F803C01FC
3F807801FC
3F807003F8
3F80E003F8
3F81C003F8
3F838003F0
3F870007F0
3F8E0007F0
3F9E0007E0
1FBC000FE0
1FF8000FC0
1FF0001F80
0FE0001F00
0FE0003E00
07F0007C00
07F800F800
0FFF07E000
1C7FFF8000
380FFC0000
7800000000
3000000000
ENDCHAR

STARTCHAR Ugrave
ENCODING 217
SWIDTH 778 0
DWIDTH 39 0
BBX 40 46 1 -1
BITMAP
00003C0000
00003E0000
00003E0000
00001F0000
00000F8000
000003C000
000001C000
000000E000
0000000000
0000000000
0000000000
3FFC01FFFE
3FF801FFFE
03F8001FE0
03F8000FC0
03F8000FC0
03F8001FC0
03F0001FC0
03F0001F80
03F0001F80
07F0001F80
07F0001F80
07E0001F80
07E0003F80
07E0003F00
07E0003F00
07E0003F00
0FE0003F00
0FC0003F00
0FC0007F00
0FC0007E00
0FC0007E00
1FC0007E00
1FC0007E00
1F80007E00
1F8000FE00
1F8000FC00
1F8001FC00
1F8003FC00
1FC006FC00
1FE01CFC00
0FF079FC00
0FFFF1FC00
07FFE1FFC0
03FF81FFC0
00FE000000
ENDCHAR

STARTCHAR Uacute
ENCODING 218
SWIDTH 778 0
DWIDTH 39 0
BBX 40 46 1 -1
BITMAP
0000007800
000000F800
000001F800
000001F000
000003E000
0000078000
00000E0000
00001C0000
0000000000
0000000000
0000000000
3FFC01FFFE
3FF801FFFE
03F8001FE0
03F8000FC0
03F8000FC0
03F8001FC0
03F0001FC0
03F0001F80
03F0001F80
07F0001F80
07F0001F80
07E0001F80
07E0003F80
07E0003F00
07E0003F00
07E0003F00
0FE0003F00
0FC0003F00
0FC0007F00
0FC0007E00
0FC0007E00
1FC0007E00
1FC0007E00
1F80007E00
1F8000FE00
1F8000FC00
1F8001FC00
1F8003FC00
1FC006FC00
1FE01CFC00
0FF079FC00
0FFFF1FC00
07FFE1FFC0
03FF81FFC0
00FE000000
ENDCHAR

STARTCHAR Ucircumflex
ENCODING 219
SWIDTH 778 0
DWIDTH 39 0
BBX 40 46 1 -1
BITMAP
0000078000
00000FC000
00001FE000
00003FE000
000078F000
0000707000
0000E03800
0001C03800
0000000000
0000000000
0000000000
3FFC01FFFE
3FF801FFFE
03F8001FE0
03F8000FC0
03F8000FC0
03F8001FC0
03F0001FC0
03F0001F80
03F0001F80
07F0001F80
07F0001F80
07E0001F80
07E0003F80
07E0003F00
07E0003F00
07E0003F00
0FE0003F00
0FC0003F00
0FC0007F00
0FC0007E00
0FC0007E00
1FC0007E00
1FC0007E00
1F80007E00
1F8000FE00
1F8000FC00
1F8001FC00
1F8003FC00
1FC006FC00
1FE01CFC00
0FF079FC00
0FFFF1FC00
07FFE1FFC0
03FF81FFC0
00FE000000
ENDCHAR

STARTCHAR Udieresis
ENCODING 220
SWIDTH 778 0
DWIDTH 39 0
BBX 41 44 1 -1
BITMAP
0000F03C0000
0001F03E0000
0001F87E0000
0001F87E0000
0001F03E0000
0000F03C0000
000000000000
000000000000
000000000000
3FFC01FFFE00
3FFC01FFFE00
03F8000FE000
03F8000FE000
03F8000FC000
03F8000FC000
03F8001FC000
03F0001FC000
03F0001F8000
07F0001F8000
07F0001F8000
07F0001F8000
07F0001F8000
07E0003F8000
07E0003F0000
07E0003F0000
0FE0003F0000
0FE0003F0000
0FC0003F0000
0FC0007F0000
0FC0007E0000
1FC0007E0000
1FC0007E0000
1FC0007E0000
1F80007E0000
1F8000FE0000
1F8001FC0000
1FC003FC0000
1FC007FC0000
1FE00EFC0000
0FF07CFC0000
0FFFF9FE0000
07FFE1FFE000
03FFC1FFC000
00FF00000000
ENDCHAR

STARTCHAR Idotaccent
ENCODING 221
SWIDTH 389 0
DWIDTH 19 0
BBX 24 44 -2 0
BITMAP
000780
0007C0
000FC0
000FC0
000FC0
000780
000000
000000
000000
000000
03FFFC
03FFFC
003FC0
003F80
003F80
003F80
003F80
003F00
003F00
003F00
003F00
007F00
007F00
007E00
007E00
007E00
007E00
00FE00
00FE00
00FC00
00FC00
00FC00
01FC00
01FC00
01FC00
01F800
01F800
01F800
03F800
03F800
03F800
07F800
7FFF80
7FFF80
ENDCHAR

STARTCHAR Scedilla
ENCODING 222
SWIDTH 556 0
DWIDTH 28 0
BBX 27 46 0 -11
BITMAP
0001F800
001FFF00
003FFF80
00F01F80
01E00780
03C00300
03C00300
07800300
07800300
0F800300
0F800000
0F800000
0FC00000
0FE00000
0FF80000
07FF8000
07FFF800
03FFFC00
01FFFE00
007FFF00
000FFF00
0000FF00
00003F00
00001F00
00001F00
30001F00
30001F00
30001E00
30001E00
30003C00
38003800
3C007000
7F01E000
3FFFC000
0FFF0000
00700000
00600000
00600000
00FC0000
01FE0000
001F0000
000F0000
000F0000
041E0000
07FE0000
01F80000
ENDCHAR

STARTCHAR germandbls
ENCODING 223
SWIDTH 556 0
DWIDTH 28 0
BBX 38 50 -9 -14
BITMAP
0000000FC0
0000003FE0
000000FFF0
000001C3F8
00000381F8
00000F00F8
00001E00F8
00003E00F8
00003E00F0
00007C00F0
00007C01E0
0000FC01C0
0000FC0380
0001FC0700
000FF80600
001FF80C00
0001F81C00
0001F83C00
0001F03C00
0001F07E00
0003F07E00
0003F07F00
0003E03F80
0003E03FC0
0003E01FC0
0007E00FE0
0007C00FE0
0007C007E0
0007C003E0
0007C003C0
000F8203C0
000F860380
000F860300
000F870600
001F0FFC00
001F0FF800
001F03E000
001E000000
001E000000
003E000000
003C000000
003C000000
0038000000
0070000000
1870000000
18E0000000
1FC0000000
1F80000000
3E00000000
3C00000000
ENDCHAR

STARTCHAR agrave
ENCODING 224
SWIDTH 556 0
DWIDTH 28 0
BBX 27 36 1 -1
BITMAP
000E0000
001F0000
001F8000
000F8000
0007C000
0001E000
0000F000
00007000
00001800
00000000
00000000
0003E100
000FFF00
003FFF00
00707F00
00E03E00
03C03E00
07C03E00
07807E00
0F807C00
0F807C00
1F00FC00
1F00FC00
1F01FC00
3F017800
3E03F800
3E06F800
3E04F800
3E0CF000
7E18F000
7E31F180
7E61F300
7FC1FE00
7F81FC00
3F01F000
3C01E000
ENDCHAR

STARTCHAR aacute
ENCODING 225
SWIDTH 556 0
DWIDTH 28 0
BBX 27 36 1 -1
BITMAP
00000C00
00001E00
00003E00
00007E00
0000F800
0001F000
0003C000
00070000
000C0000
00000000
00000000
0003E100
000FFF00
003FFF00
00707F00
00E03E00
03C03E00
07C03E00
07807E00
0F807C00
0F807C00
1F00FC00
1F00FC00
1F01FC00
3F017800
3E03F800
3E06F800
3E04F800
3E0CF000
7E18F000
7E31F180
7E61F300
7FC1FE00
7F81FC00
3F01F000
3C01E000
ENDCHAR

STARTCHAR acircumflex
ENCODING 226
SWIDTH 556 0
DWIDTH 28 0
BBX 27 36 1 -1
BITMAP
0001E000
0003E000
0003F000
0007F000
000F7800
001E3800
00381C00
00700C00
00E00600
00000000
00000000
0003E100
000FFF00
003FFF00
00707F00
00E03E00
03C03E00
07C03E00
07807E00
0F807C00
0F807C00
1F00FC00
1F00FC00
1F01FC00
3F017800
3E03F800
3E06F800
3E04F800
3E0CF000
7E18F000
7E31F180
7E61F300
7FC1FE00
7F81FC00
3F01F000
3C01E000
ENDCHAR

STARTCHAR atilde
ENCODING 227
SWIDTH 556 0
DWIDTH 28 0
BBX 27 35 1 -1
BITMAP
00000180
001F0180
007FC300
007FFF00
00E1FE00
00C07C00
00800000
00000000
00000000
00000000
0003E100
000FFF00
003FFF00
00707F00
00E03E00
03C03E00
07C03E00
07807E00
0F807C00
0F807C00
1F00FC00
1F00FC00
1F01FC00
3F017800
3E03F800
3E06F800
3E04F800
3E0CF000
7E18F000
7E31F180
7E61F300
7FC1FE00
7F81FC00
3F01F000
3C01E000
ENDCHAR

STARTCHAR adieresis
ENCODING 228
SWIDTH 556 0
DWIDTH 28 0
BBX 26 33 1 -1
BITMAP
00781E00
007C1F00
00FC3F00
00FC3F00
00781F00
00300E00
00000000
00000000
0003C100
000FFF00
003FFE00
00707E00
00E03E00
03C07E00
07C07C00
07807C00
0F807C00
0F80FC00
1F00FC00
1F01F800
1F01F800
3F03F800
3E02F800
3E06F000
3E0CF000
3E09F000
7E19F000
7E31F100
7E61F700
7FC1FE00
7F81F800
3F01F000
3C01C000
ENDCHAR

STARTCHAR aring
ENCODING 229
SWIDTH 556 0
DWIDTH 28 0
BBX 26 37 1 -1
BITMAP
0001F000
0007F800
00073800
000E1C00
000E1C00
000E1C00
000E1C00
00073800
0007F800
0001E000
00000000
00000000
0003E100
000FFF00
001FFF00
00707F00
00E03E00
01C03E00
07C03E00
07C07E00
0F807C00
0F807C00
1F80FC00
1F00FC00
1F01F800
3F017800
3F037800
3E06F800
3E06F800
3E0CF000
7E18F080
7E38F180
7E71F300
7FE1FE00
7F81FC00
3F01F000
3C00C000
ENDCHAR

STARTCHAR ae
ENCODING 230
SWIDTH 738 0
DWIDTH 37 0
BBX 37 25 0 -1
BITMAP
003F800FC0
01FFC03FE0
03FFE0E3F0
0303F3C1F0
0300F781F0
0200FF01F0
02007F01E0
00007F03E0
00007E07C0
00007E0F80
00007E3E00
001FFFF800
01FFFF8000
07E07C0000
0F80FC0000
1F00FC0000
1F00FC0000
3E00FC0000
3E01FC0040
3E03FC00C0
3F07FC0380
3FFEFF1E00
1FFC7FFC00
1FF03FF000
07C01F8000
ENDCHAR

STARTCHAR ccedilla
ENCODING 231
SWIDTH 444 0
DWIDTH 22 0
BBX 23 35 1 -11
BITMAP
000FE0
001FF8
007FF8
00E0F0
03C030
078030
0F8030
0F0030
1F0000
1F0000
3F0000
3E0000
3E0000
3E0000
7E0000
7E0000
7E0000
7E0000
7E0020
7F00E0
3F0380
3FFF00
1FFC00
0FF000
00C000
018000
018000
03F000
03F800
007C00
003C00
003C00
087C00
1FF800
07E000
ENDCHAR

STARTCHAR egrave
ENCODING 232
SWIDTH 444 0
DWIDTH 22 0
BBX 22 36 1 -1
BITMAP
003800
007C00
007E00
003F00
000F00
000780
0003C0
0000E0
000060
000000
000000
0007E0
001FF0
0071F8
01E0F8
03C0F8
07C0F8
0780F0
0F81F0
0F81E0
1F03E0
1F0780
3F1F00
3FFC00
3FC000
3E0000
3E0000
7E0000
7E0000
7E0000
7E0060
7F01C0
3F8F80
3FFE00
1FF800
0FE000
ENDCHAR

STARTCHAR eacute
ENCODING 233
SWIDTH 444 0
DWIDTH 22 0
BBX 23 36 1 -1
BITMAP
000070
0000F8
0001F8
0003F0
0007E0
000F80
000E00
001800
003000
000000
000000
0007E0
001FF0
0071F8
01E0F8
03C0F8
07C0F8
0780F0
0F81F0
0F81E0
1F03E0
1F0780
3F1F00
3FFC00
3FC000
3E0000
3E0000
7E0000
7E0000
7E0000
7E0060
7F01C0
3F8F80
3FFE00
1FF800
0FE000
ENDCHAR

STARTCHAR ecircumflex
ENCODING 234
SWIDTH 444 0
DWIDTH 22 0
BBX 23 36 1 -1
BITMAP
000780
000F80
001FC0
003FC0
0079E0
00F0F0
01E070
018038
030018
000000
000000
0007E0
001FF0
0071F8
01E0F8
03C0F8
07C0F8
0780F0
0F81F0
0F81E0
1F03E0
1F0780
3F1F00
3FFC00
3FC000
3E0000
3E0000
7E0000
7E0000
7E0000
7E0060
7F01C0
3F8F80
3FFE00
1FF800
0FE000
ENDCHAR

STARTCHAR edieresis
ENCODING 235
SWIDTH 444 0
DWIDTH 22 0
BBX 23 33 1 -1
BITMAP
01E078
03F0FC
03F0FC
03F0FC
01E078
00C030
000000
000000
0007E0
001FF0
0071F8
01E0F8
03C0F8
07C0F8
0780F0
0F81F0
0F81E0
1F03E0
1F0780
3F1F00
3FFC00
3FC000
3E0000
3E0000
7E0000
7E0000
7E0000
7E0060
7F01C0
3F8F80
3FFE00
1FF800
0FE000
ENDCHAR

STARTCHAR igrave
ENCODING 236
SWIDTH 333 0
DWIDTH 17 0
BBX 18 36 0 -1
BITMAP
018000
03C000
03E000
01F000
00F800
007C00
001C00
000E00
000300
000000
000000
003800
00F800
03F800
07F800
1FF800
3BF800
61F000
03F000
03F000
03E000
03E000
03E000
07E000
07C000
07C000
0FC000
0FC000
0F8000
0F8000
1F8C00
1FB800
1FF000
1FC000
1F8000
0E0000
ENDCHAR

STARTCHAR iacute
ENCODING 237
SWIDTH 333 0
DWIDTH 17 0
BBX 19 36 0 -1
BITMAP
000380
0007C0
000FC0
001F80
003F00
007C00
00F000
01C000
038000
000000
000000
003800
00F800
03F800
07F800
1FF800
3BF800
61F000
03F000
03F000
03E000
03E000
03E000
07E000
07C000
07C000
0FC000
0FC000
0F8000
0F8000
1F8C00
1FB800
1FF000
1FC000
1F8000
0E0000
ENDCHAR

STARTCHAR icircumflex
ENCODING 238
SWIDTH 333 0
DWIDTH 17 0
BBX 19 36 0 -1
BITMAP
003C00
007C00
00FE00
01FE00
03CF00
078700
0F0780
1C0380
3801C0
000000
000000
003800
00F800
03F800
07F800
1FF800
3BF800
61F000
03F000
03F000
03E000
03E000
03E000
07E000
07C000
07C000
0FC000
0FC000
0F8000
0F8000
1F8C00
1FB800
1FF000
1FC000
1F8000
0E0000
ENDCHAR

STARTCHAR idieresis
ENCODING 239
SWIDTH 333 0
DWIDTH 17 0
BBX 20 33 0 -1
BITMAP
0F03C0
1F87E0
1F87E0
1F87E0
0F03C0
060180
000000
000000
003800
00F800
03F800
07F800
1FF800
3BF800
61F000
03F000
03F000
03E000
03E000
03E000
07E000
07C000
07C000
0FC000
0FC000
0F8000
0F8000
1F8C00
1FB800
1FF000
1FC000
1F8000
0E0000
ENDCHAR

STARTCHAR gbreve
ENCODING 240
SWIDTH 500 0
DWIDTH 25 0
BBX 33 48 -5 -14
BITMAP
0006001800
0006003000
0007003000
0007007000
0003C1E000
0003FFC000
0001FF8000
00007E0000
0000000000
0000000000
00007C0000
0003FFFE00
000F9FFE00
003E07FE00
007C07E000
007803E000
00F803E000
00F803E000
01F003E000
01F003E000
01F007C000
01F007C000
01F00F8000
00F80F0000
00FC1E0000
007FF80000
001FC00000
0003800000
000F000000
001F000000
003F800000
003FC00000
001FF00000
001FF80000
00F7FE0000
03C3FF0000
0700FF0000
0E007F8000
1E003F8000
3C001F8000
3C000F8000
3C000F8000
3C000F0000
3E001F0000
1F003E0000
0FC0F80000
07FFF00000
00FF000000
ENDCHAR

STARTCHAR ntilde
ENCODING 241
SWIDTH 556 0
DWIDTH 28 0
BBX 28 35 0 -1
BITMAP
000000C0
000F80C0
001FE180
003FFF80
0070FF00
00603E00
00400000
00000000
00000000
00000000
00700380
01F00FC0
07F03FC0
0FF07FC0
1FF0FFC0
33E18F80
23E30F80
03E60F80
03EC1F80
03C81F00
07D81F00
07F01F00
07E03F00
07E03E00
07C03E00
0FC03E00
0FC07E00
0F807C00
1F807C00
1F807C60
1F00FCC0
1F00FF80
3F00FF00
3F00FC00
38007000
ENDCHAR

STARTCHAR ograve
ENCODING 242
SWIDTH 556 0
DWIDTH 28 0
BBX 25 36 1 -1
BITMAP
001C0000
001E0000
001F0000
001F8000
0007C000
0003C000
0000E000
00007000
00003800
00000000
00000000
000FF000
003FF800
00F0FC00
01E07E00
03C03F00
07803F00
0F803F00
1F803F00
1F003F00
1F003F00
3F003F00
3F003F00
3E003E00
7E003E00
7E007E00
7E007E00
7E007C00
7E007C00
7E00F800
7E00F000
3F01E000
3F03C000
3FC78000
1FFE0000
07F80000
ENDCHAR

STARTCHAR oacute
ENCODING 243
SWIDTH 556 0
DWIDTH 28 0
BBX 25 36 1 -1
BITMAP
00001C00
00003C00
00007C00
0000FC00
0001F000
0003C000
00078000
000E0000
00180000
00000000
00000000
000FF000
003FF800
00F0FC00
01E07E00
03C03F00
07803F00
0F803F00
1F803F00
1F003F00
1F003F00
3F003F00
3F003F00
3E003E00
7E003E00
7E007E00
7E007E00
7E007C00
7E007C00
7E00F800
7E00F000
3F01E000
3F03C000
3FC78000
1FFE0000
07F80000
ENDCHAR

STARTCHAR ocircumflex
ENCODING 244
SWIDTH 556 0
DWIDTH 28 0
BBX 25 36 1 -1
BITMAP
0003C000
0003E000
0007E000
000FF000
001E7000
003C7800
00703800
00E01C00
01C00C00
00000000
00000000
000FF000
003FF800
00F0FC00
01E07E00
03C03F00
07803F00
0F803F00
1F803F00
1F003F00
1F003F00
3F003F00
3F003F00
3E003E00
7E003E00
7E007E00
7E007E00
7E007C00
7E007C00
7E00F800
7E00F000
3F01E000
3F03C000
3FC78000
1FFE0000
07F80000
ENDCHAR

STARTCHAR otilde
ENCODING 245
SWIDTH 556 0
DWIDTH 28 0
BBX 26 35 1 -1
BITMAP
00000300
003E0300
007FC700
00FFFE00
00C3FC00
0180F800
00000000
00000000
00000000
00000000
000FF000
003FF800
00F0FC00
01E07E00
03C03F00
07803F00
0F803F00
1F803F00
1F003F00
1F003F00
3F003F00
3F003F00
3E003E00
7E003E00
7E007E00
7E007E00
7E007C00
7E007C00
7E00F800
7E00F000
3F01E000
3F03C000
3FC78000
1FFE0000
07F80000
ENDCHAR

STARTCHAR odieresis
ENCODING 246
SWIDTH 556 0
DWIDTH 28 0
BBX 25 33 1 -1
BITMAP
00781E00
00FC1F00
00FC3F00
00FC3F00
00781E00
00300C00
00000000
00000000
0007F000
003FFC00
00F0FE00
01E07E00
03C03F00
07C03F00
0F803F00
1F803F00
1F803F00
1F003F00
3F003F00
3F003F00
3F003E00
7E003E00
7E003E00
7E007E00
7E007C00
7E007C00
7E00F800
7E00F000
3F01E000
3F01C000
3FC78000
1FFE0000
07F80000
ENDCHAR

STARTCHAR divide
ENCODING 247
SWIDTH 606 0
DWIDTH 30 0
BBX 28 23 2 5
BITMAP
000E0000
001F0000
003F8000
003F8000
003F8000
001F0000
000E0000
00000000
00000000
7FFFFFC0
7FFFFFC0
7FFFFFC0
7FFFFFC0
7FFFFFC0
00000000
00000000
000E0000
001F0000
003F8000
003F8000
003F8000
001F0000
000E0000
ENDCHAR

STARTCHAR oslash
ENCODING 248
SWIDTH 556 0
DWIDTH 28 0
BBX 29 29 -1 -3
BITMAP
00000040
000000E0
0003FDC0
000FFF80
003C3F80
00781F80
00F00F80
01E01FC0
03E03FC0
07E07FC0
07C0EFC0
07C1CFC0
0FC18FC0
0FC30FC0
0F870F80
1F8E0F80
1F9C1F80
1FB81F80
1FF01F00
1FE01F00
1FE03E00
1FC03C00
0F807800
0FC0F000
0FF1E000
1FFF8000
19FE0000
30000000
30000000
ENDCHAR

STARTCHAR ugrave
ENCODING 249
SWIDTH 556 0
DWIDTH 28 0
BBX 28 36 0 -1
BITMAP
00030000
00078000
000FC000
0007C000
0003E000
0001F000
00007800
00003800
00000C00
00000000
00000000
00300040
00F807C0
03F80FC0
07F80FC0
1FF80F80
31F00F80
21F01F80
01F01F80
03F01F00
03E03F00
03E03F00
03E03F00
07E07E00
07C07E00
07C0FE00
07C1BE00
0F813C00
0F837C00
0F867C00
0F8C7C40
1F987DC0
1FF0FF80
1FE0FE00
1FC0FC00
0F007000
ENDCHAR

STARTCHAR uacute
ENCODING 250
SWIDTH 556 0
DWIDTH 28 0
BBX 28 36 0 -1
BITMAP
00000600
00000F00
00001F00
00003F00
00007E00
0000F800
0001E000
00038000
00070000
00000000
00000000
00300040
00F807C0
03F80FC0
07F80FC0
1FF80F80
31F00F80
21F01F80
01F01F80
03F01F00
03E03F00
03E03F00
03E03F00
07E07E00
07C07E00
07C0FE00
07C1BE00
0F813C00
0F837C00
0F867C00
0F8C7C40
1F987DC0
1FF0FF80
1FE0FE00
1FC0FC00
0F007000
ENDCHAR

STARTCHAR ucircumflex
ENCODING 251
SWIDTH 556 0
DWIDTH 28 0
BBX 28 35 0 -1
BITMAP
0000F000
0001F800
0003F800
0007BC00
000F1C00
001C0E00
00380600
00700300
00000000
00000000
00300040
00F807C0
03F80FC0
07F80FC0
1FF80F80
31F00F80
21F01F80
01F01F80
03F01F00
03E03F00
03E03F00
03E03F00
07E07E00
07C07E00
07C0FE00
07C1BE00
0F813C00
0F837C00
0F867C00
0F8C7C40
1F987DC0
1FF0FF80
1FE0FE00
1FC0FC00
0F007000
ENDCHAR

STARTCHAR udieresis
ENCODING 252
SWIDTH 556 0
DWIDTH 28 0
BBX 28 33 0 -1
BITMAP
003C0F00
003E0F80
007E1F80
007E1F80
003C0F80
00180700
00000000
00000000
00300040
00F80FC0
03F80F80
07F00F80
1FF00F80
31F01F80
21F01F00
01F01F00
03E03F00
03E03E00
03E03E00
03E07E00
07C07E00
07C0FE00
07C0BC00
07C1BC00
0F837C00
0F827C00
0F867800
0F8C78C0
1F98F980
1FF0FF00
1FE0FE00
1FC0F800
0F00F000
ENDCHAR

STARTCHAR dotlessi
ENCODING 253
SWIDTH 333 0
DWIDTH 17 0
BBX 16 25 0 -1
BITMAP
0030
00F8
03F8
07F8
0FF8
3BF8
61F0
01F0
03F0
03E0
03E0
03E0
07E0
07C0
07C0
0FC0
0FC0
0F80
0F84
1F8C
1FF8
1FE0
1FC0
1F00
0C00
ENDCHAR

STARTCHAR scedilla
ENCODING 254
SWIDTH 444 0
DWIDTH 22 0
BBX 22 35 -1 -11
BITMAP
0007C0
003FF8
00FFF8
01C0F0
038070
078030
078030
0F8030
0FC000
0FE000
0FFF00
07FFC0
03FFE0
01FFF0
003FF0
0003F0
0001F0
1001F0
1801E0
1801E0
3C03C0
3F0780
3FFE00
3FFC00
01E000
00C000
018000
03F000
03F800
007C00
003C00
003C00
087800
1FF800
07E000
ENDCHAR

STARTCHAR ydieresis
ENCODING 255
SWIDTH 556 0
DWIDTH 28 0
BBX 29 46 -1 -14
BITMAP
001E0780
003F0FC0
003F0FC0
003F0FC0
001E0780
000C0300
00000000
00000000
00700070
01F803F0
03F803E0
07F803E0
1CF807E0
38F807C0
20F807C0
00F807C0
00F80FC0
00F00F80
01F00F80
01F01F80
01F01F00
01F03F00
01F03F00
01F07F00
01F05E00
01F0FE00
03F1BE00
03F33E00
03F63C00
03FE7C00
03FC7C00
01F07800
01E07800
0000F800
0000F000
0000F000
0001E000
0001E000
0001C000
04038000
0C038000
3C070000
3E0E0000
1F1C0000
1FF00000
07C00000
ENDCHAR
ENDFONT
